<?xml version="1.0" encoding="iso-8859-1"?>
<!-- Generator: Adobe Illustrator 19.0.0, SVG Export Plug-In . SVG Version: 6.00 Build 0)  -->
<svg version="1.1" id="Capa_1" xmlns="http://www.w3.org/2000/svg" xmlns:xlink="http://www.w3.org/1999/xlink" x="0px" y="0px"
	 viewBox="0 0 512 512" style="enable-background:new 0 0 512 512;" xml:space="preserve">
<path style="fill:#78B9EB;" d="M82.056,390.319h55.039v79.36c0,23.272-19.041,42.313-42.313,42.313h-3.139
	c-23.272,0-42.313-19.041-42.313-42.313v-46.633C49.328,404.972,63.98,390.319,82.056,390.319z"/>
<path style="fill:#B3D8F4;" d="M462.672,28.25v436.018c0,26.362-21.371,47.733-47.733,47.733H94.783v-0.083
	c22.087-1.328,39.745-19.826,39.745-42.224l-0.052-79.375V29.214C134.476,13.082,147.558,0,163.69,0h270.742
	C450.025,0,462.672,12.646,462.672,28.25z"/>
<path style="fill:#D1E7F8;" d="M462.672,28.25v436.018c0,26.362-21.371,47.733-47.733,47.733H125.906v-0.083
	c22.087-1.328,39.745-19.826,39.745-42.224l-0.052-79.375V29.214C165.599,13.082,178.681,0,194.814,0h239.619
	C450.025,0,462.672,12.646,462.672,28.25z"/>
<path style="fill:#78B9EB;" d="M363.149,385.484c-0.519,0.425-1.048,0.851-1.577,1.276c-2.594,2.075-5.301,4.129-8.123,6.162
	c-8.009,5.768-18.02,5.768-26.029,0c-3.403-2.448-6.629-4.928-9.7-7.439c-69.415-56.862-56.012-129.245-50.524-149.423
	c0.923-3.382,3.04-6.09,5.789-7.397l44.735-21.205l13.393-6.349c5.996-2.843,12.657-2.843,18.643,0l11.817,5.602l1.577,0.747
	l44.735,21.205c2.749,1.307,4.876,4.015,5.789,7.397C419.161,256.239,432.565,328.621,363.149,385.484z"/>
<path style="fill:#96C8EF;" d="M363.149,385.484c-0.519,0.425-1.048,0.851-1.577,1.276c-0.529-0.425-1.058-0.851-1.577-1.276
	c-69.415-56.862-56.012-129.245-50.534-149.423c0.923-3.382,3.05-6.09,5.799-7.397l44.735-21.205l1.577-0.747l1.577,0.747
	l44.735,21.205c2.749,1.307,4.876,4.015,5.789,7.397C419.161,256.239,432.565,328.621,363.149,385.484z"/>
<path style="fill:#317F46;" d="M325.526,337.882c-4.26,0-8.402-1.64-11.507-4.59l-19.872-18.867
	c-3.116-2.96-3.244-7.885-0.285-11.001c2.959-3.116,7.884-3.242,11-0.285l19.873,18.868c0.299,0.283,0.627,0.326,0.858,0.311
	c0.226-0.016,0.551-0.101,0.809-0.42l48.909-60.659c2.697-3.345,7.595-3.87,10.941-1.173c3.346,2.698,3.871,7.596,1.173,10.942
	l-48.909,60.658c-2.918,3.619-7.253,5.872-11.892,6.18C326.258,337.87,325.891,337.882,325.526,337.882z"/>
<g>
	<path style="fill:#96C8EF;" d="M403.452,67.235h15.004c4.297,0,7.781-3.483,7.781-7.781s-3.484-7.781-7.781-7.781h-15.004
		c-4.297,0-7.781,3.483-7.781,7.781S399.155,67.235,403.452,67.235z"/>
	<path style="fill:#96C8EF;" d="M174.177,67.235h198.152c4.297,0,7.781-3.483,7.781-7.781s-3.484-7.781-7.781-7.781H174.177
		c-4.297,0-7.781,3.483-7.781,7.781S169.88,67.235,174.177,67.235z"/>
	<path style="fill:#96C8EF;" d="M202.667,443.638h-28.49c-4.297,0-7.781,3.483-7.781,7.781c0,4.298,3.484,7.781,7.781,7.781h28.49
		c4.297,0,7.781-3.483,7.781-7.781C210.448,447.12,206.964,443.638,202.667,443.638z"/>
	<path style="fill:#96C8EF;" d="M418.456,443.638H233.79c-4.297,0-7.781,3.483-7.781,7.781c0,4.298,3.484,7.781,7.781,7.781h184.665
		c4.297,0,7.781-3.483,7.781-7.781C426.236,447.12,422.753,443.638,418.456,443.638z"/>
	<path style="fill:#96C8EF;" d="M418.456,107.692H174.177c-4.297,0-7.781,3.483-7.781,7.781s3.484,7.781,7.781,7.781h244.279
		c4.297,0,7.781-3.483,7.781-7.781S422.753,107.692,418.456,107.692z"/>
	<path style="fill:#96C8EF;" d="M174.177,179.273h71.026c4.297,0,7.781-3.483,7.781-7.781s-3.484-7.781-7.781-7.781h-71.026
		c-4.297,0-7.781,3.483-7.781,7.781S169.88,179.273,174.177,179.273z"/>
	<path style="fill:#96C8EF;" d="M418.456,163.711h-142.13c-4.297,0-7.781,3.483-7.781,7.781s3.484,7.781,7.781,7.781h142.13
		c4.297,0,7.781-3.483,7.781-7.781S422.753,163.711,418.456,163.711z"/>
	<path style="fill:#96C8EF;" d="M174.177,235.292h57.466c4.297,0,7.781-3.483,7.781-7.781s-3.484-7.781-7.781-7.781h-57.466
		c-4.297,0-7.781,3.483-7.781,7.781S169.88,235.292,174.177,235.292z"/>
	<path style="fill:#96C8EF;" d="M174.177,291.312h57.466c4.297,0,7.781-3.483,7.781-7.781c0-4.298-3.484-7.781-7.781-7.781h-57.466
		c-4.297,0-7.781,3.483-7.781,7.781C166.396,287.829,169.88,291.312,174.177,291.312z"/>
	<path style="fill:#96C8EF;" d="M174.177,347.33h70.953c4.297,0,7.781-3.483,7.781-7.781c0-4.298-3.484-7.781-7.781-7.781h-70.953
		c-4.297,0-7.781,3.483-7.781,7.781C166.396,343.848,169.88,347.33,174.177,347.33z"/>
	<path style="fill:#96C8EF;" d="M174.177,403.349h96.108c4.297,0,7.781-3.483,7.781-7.781c0-4.298-3.484-7.781-7.781-7.781h-96.108
		c-4.297,0-7.781,3.483-7.781,7.781C166.396,399.867,169.88,403.349,174.177,403.349z"/>
</g>
<g>
</g>
<g>
</g>
<g>
</g>
<g>
</g>
<g>
</g>
<g>
</g>
<g>
</g>
<g>
</g>
<g>
</g>
<g>
</g>
<g>
</g>
<g>
</g>
<g>
</g>
<g>
</g>
<g>
</g>
</svg>
