<svg width="27" height="36" viewBox="0 0 27 36" fill="none" xmlns="http://www.w3.org/2000/svg">
<path d="M13.2813 35.2673L13.1029 35.4425L13.103 35.4425C13.296 35.6389 13.5587 35.75 13.8335 35.75C14.1083 35.75 14.3709 35.6389 14.5639 35.4426L14.564 35.4425L14.3857 35.2673L14.5641 35.4424L14.5642 35.4423L14.5647 35.4418L14.5665 35.44L14.5732 35.4331L14.5992 35.4063C14.6221 35.3827 14.6559 35.3477 14.6998 35.3018C14.7877 35.21 14.9162 35.0743 15.0797 34.8984C15.4065 34.5467 15.8728 34.034 16.4321 33.3886C17.5504 32.0982 19.0418 30.2763 20.5332 28.1503C23.5062 23.9124 26.582 18.4154 26.582 13.2273C26.582 6.07392 20.8685 0.25 13.832 0.25C6.79553 0.25 1.08203 6.07392 1.08203 13.2273C1.08203 18.4154 4.16079 23.9125 7.13371 28.1503C8.62514 30.2763 10.1165 32.0982 11.2349 33.3886C11.7942 34.034 12.2605 34.5467 12.5873 34.8984C12.7507 35.0743 12.8792 35.21 12.9671 35.3018C13.0111 35.3477 13.0448 35.3827 13.0677 35.4063L13.0938 35.4331L13.1005 35.44L13.1022 35.4418L13.1027 35.4423L13.1029 35.4424L13.2813 35.2673ZM13.832 2.34127C19.7395 2.34127 24.5192 7.20129 24.5192 13.2273C24.5192 15.3988 23.8277 17.7965 22.768 20.1741C21.7094 22.5491 20.2904 24.8883 18.8523 26.9383C16.4998 30.2918 14.5357 32.3764 13.8321 33.1075C13.1286 32.376 11.1669 30.2914 8.81466 26.9383C7.37648 24.8883 5.95681 22.5491 4.89749 20.174C3.83701 17.7964 3.14489 15.3988 3.14489 13.2273C3.14489 7.20129 7.92455 2.34127 13.832 2.34127ZM13.832 7.4078C10.6786 7.4078 8.1149 10.0279 8.1149 13.2273C8.1149 16.4266 10.6786 19.0467 13.832 19.0467C16.9853 19.0467 19.552 16.4268 19.552 13.2273C19.552 10.0277 16.9853 7.4078 13.832 7.4078ZM13.832 9.49907C15.8563 9.49907 17.4892 11.1551 17.4892 13.2273C17.4892 15.2994 15.8563 16.9554 13.832 16.9554C11.808 16.9554 10.1778 15.2997 10.1778 13.2273C10.1778 11.1548 11.808 9.49907 13.832 9.49907Z" fill="#127BD7" stroke="#127BD7" stroke-width="0.5"/>
</svg>
