<svg width="70" height="51" viewBox="0 0 70 51" fill="none" xmlns="http://www.w3.org/2000/svg">
<g clip-path="url(#clip0)">
<path d="M0.801994 27.2201C0.802811 27.2207 0.803497 27.2214 0.804451 27.222L15.0921 37.3221C16.1625 38.0787 17.8937 38.0759 18.9592 37.3155C20.0245 36.5552 20.0204 35.3254 18.95 34.5686L9.3573 27.7876L67.2656 27.7876C68.7758 27.7876 70 26.918 70 25.8452C70 24.7725 68.7758 23.9029 67.2656 23.9029L9.35744 23.9029L18.9499 17.1218C20.0203 16.3651 20.0244 15.1353 18.9591 14.375C17.8936 13.6145 16.1622 13.6118 15.092 14.3684L0.804314 24.4685C0.803497 24.4691 0.802811 24.4698 0.801857 24.4704C-0.269066 25.2296 -0.265648 26.4634 0.801994 27.2201Z" fill="black"/>
</g>
<defs>
<clipPath id="clip0">
<rect width="70" height="49.7238" fill="white" transform="translate(70 50.7073) rotate(180)"/>
</clipPath>
</defs>
</svg>
