<svg width="70" height="51" viewBox="0 0 70 51" fill="none" xmlns="http://www.w3.org/2000/svg">
<g clip-path="url(#clip0)">
<path d="M69.198 24.4706C69.1972 24.47 69.1965 24.4693 69.1955 24.4687L54.9079 14.3686C53.8375 13.6119 52.1063 13.6148 51.0408 14.3752C49.9755 15.1355 49.9796 16.3653 51.05 17.122L60.6427 23.9031H2.73438C1.22418 23.9031 0 24.7727 0 25.8454C0 26.9182 1.22418 27.7878 2.73438 27.7878H60.6426L51.0501 34.5688C49.9797 35.3256 49.9756 36.5554 51.0409 37.3157C52.1064 38.0762 53.8378 38.0788 54.908 37.3223L69.1957 27.2222C69.1965 27.2216 69.1972 27.2209 69.1981 27.2203C70.2691 26.4611 70.2656 25.2273 69.198 24.4706Z" fill="black"/>
</g>
<defs>
<clipPath id="clip0">
<rect width="70" height="49.7238" fill="white" transform="translate(0 0.983398)"/>
</clipPath>
</defs>
</svg>
