<svg width="76" height="76" viewBox="0 0 76 76" fill="none" xmlns="http://www.w3.org/2000/svg">
<path d="M35.9012 36.5199H40.0926C41.8212 36.5199 43.226 35.115 43.226 33.3864V30.6866H45.9259C47.6544 30.6866 49.0593 29.2817 49.0593 27.5531V23.3617C49.0593 21.6331 47.6544 20.2283 45.9259 20.2283H43.226V17.5285C43.226 15.7999 41.8212 14.395 40.0926 14.395H35.9012C34.1726 14.395 32.7677 15.7999 32.7677 17.5285V20.2283H30.0679C28.3393 20.2283 26.9344 21.6331 26.9344 23.3617V27.5531C26.9344 29.2817 28.3393 30.6866 30.0679 30.6866H32.7677V33.3864C32.7735 35.115 34.1726 36.5199 35.9012 36.5199ZM30.0737 28.3741C29.6227 28.3741 29.2527 28.0041 29.2527 27.5531V23.3617C29.2527 22.9108 29.6227 22.5408 30.0737 22.5408H34.2651C34.716 22.5408 35.086 22.1708 35.086 21.7199V17.5285C35.086 17.0775 35.456 16.7075 35.9069 16.7075H40.0984C40.5493 16.7075 40.9193 17.0775 40.9193 17.5285V21.7199C40.9193 22.1708 41.2893 22.5408 41.7402 22.5408H45.9316C46.3826 22.5408 46.7526 22.9108 46.7526 23.3617V27.5531C46.7526 28.0041 46.3826 28.3741 45.9316 28.3741H41.7402C41.2893 28.3741 40.9193 28.7441 40.9193 29.195V33.3864C40.9193 33.8374 40.5493 34.2074 40.0984 34.2074H35.9069C35.456 34.2074 35.086 33.8374 35.086 33.3864V29.195C35.086 28.7441 34.716 28.3741 34.2651 28.3741H30.0737Z" fill="#127BD7"/>
<path d="M54.1871 60.7969H54.1873C60.072 60.7969 64.8436 56.0253 64.8436 50.1406C64.8436 44.256 60.072 39.4844 54.1873 39.4844C48.3027 39.4844 43.5311 44.256 43.5311 50.1406L43.5311 50.1409C43.537 56.0253 48.3026 60.791 54.1871 60.7969ZM54.1873 42.2969C58.5182 42.2969 62.0311 45.8098 62.0311 50.1406C62.0311 54.4715 58.5182 57.9844 54.1873 57.9844C49.8565 57.9844 46.3436 54.4715 46.3436 50.1406C46.3436 45.8098 49.8565 42.2969 54.1873 42.2969Z" fill="#333333" stroke="#333333" stroke-width="0.5"/>
<path d="M11.809 58.5938L12.0328 58.4471L11.8713 58.2338C11.4124 57.6275 11.0157 56.9871 10.6754 56.3123L10.5498 56.0632L10.3159 56.2152C4.34793 60.0944 0.755668 66.7292 0.749817 73.8435V73.8437C0.749817 74.6177 1.38206 75.25 2.15607 75.25C2.93 75.25 3.56219 74.6178 3.56232 73.8439C3.56802 67.6959 6.66484 61.9643 11.809 58.5938Z" fill="#333333" stroke="#333333" stroke-width="0.5"/>
<path d="M42.8747 73.8436V73.8434C42.8689 66.7291 39.2766 60.0944 33.3146 56.2095L33.0807 56.057L32.9549 56.3064C32.6148 56.981 32.2123 57.6273 31.7588 58.2282L31.598 58.4412L31.821 58.5877C36.9597 61.9641 40.0565 67.6958 40.0622 73.8439C40.0623 74.6178 40.6945 75.2499 41.4685 75.2499C42.2425 75.2499 42.8747 74.6176 42.8747 73.8436Z" fill="#333333" stroke="#333333" stroke-width="0.5"/>
<path d="M21.8121 61.375H21.8123C27.697 61.375 32.4686 56.6034 32.4686 50.7188C32.4686 44.8341 27.697 40.0625 21.8123 40.0625C15.9277 40.0625 11.1561 44.8341 11.1561 50.7188L11.1561 50.719C11.162 56.6034 15.9276 61.3691 21.8121 61.375ZM21.8123 42.875C26.1432 42.875 29.6561 46.3879 29.6561 50.7188C29.6561 55.0496 26.1432 58.5625 21.8123 58.5625C17.4815 58.5625 13.9686 55.0496 13.9686 50.7188C13.9686 46.3879 17.4815 42.875 21.8123 42.875Z" fill="#333333" stroke="#333333" stroke-width="0.5"/>
<path d="M75.25 73.8436V73.8434C75.2441 66.6296 71.5523 59.9247 65.4559 56.0632L65.2322 55.9215L65.1036 56.153C64.7349 56.8168 64.3095 57.4462 63.8334 58.03L63.6546 58.2493L63.8943 58.3998C69.2094 61.736 72.4318 67.5702 72.4375 73.8439C72.4376 74.6178 73.0698 75.2499 73.8437 75.2499C74.6177 75.2499 75.25 74.6176 75.25 73.8436Z" fill="#333333" stroke="#333333" stroke-width="0.5"/>
<path d="M38.67 3.81832L38.6697 3.81862L38.6812 3.8263C45.6008 8.48395 53.7297 11.0309 62.0679 11.1648C62.304 11.1705 62.3956 11.2063 62.4381 11.2432C62.4728 11.2733 62.5236 11.3482 62.5343 11.5907L62.5343 11.5909C62.955 20.996 61.6695 29.8655 58.1148 38.0274L58.007 38.275L58.2622 38.3634C58.9816 38.6127 59.6791 38.9301 60.3429 39.3046L60.5838 39.4405L60.6948 39.1872C64.2788 31.0024 65.8096 21.8425 65.3465 11.4704C65.3495 9.75741 63.9679 8.35862 62.2473 8.35234H62.2464H62.1214C54.3201 8.21405 46.72 5.83004 40.2398 1.48178C39.5828 1.02189 38.8079 0.762998 38.0066 0.750075L38.0066 0.749945L37.9985 0.750075C37.1972 0.762998 36.4222 1.02189 35.7653 1.48177C29.2851 5.83004 21.685 8.21405 13.8837 8.35234L13.7587 8.35234L13.7578 8.35234C12.0371 8.35862 10.6556 9.75741 10.6585 11.4704C10.1954 21.8425 11.7262 31.0024 15.3103 39.1872L15.4212 39.4405L15.6621 39.3046C16.326 38.9301 17.0234 38.6127 17.7429 38.3634L17.9981 38.275L17.8902 38.0274C14.3356 29.8655 13.0501 20.996 13.4708 11.5909L13.4708 11.5907C13.4814 11.3482 13.5322 11.2733 13.5669 11.2432C13.6095 11.2063 13.701 11.1705 13.9372 11.1648C22.2754 11.0309 30.4043 8.48395 37.3239 3.8263L37.3241 3.82661L37.3351 3.81832C37.5303 3.67073 37.7603 3.58063 38.0025 3.56319C38.2447 3.58063 38.4748 3.67073 38.67 3.81832Z" fill="#333333" stroke="#333333" stroke-width="0.5"/>
<path d="M43.2718 56.1544L43.1432 55.9194L42.9176 56.0639C41.6483 56.877 40.4725 57.8188 39.4021 58.8774L39.2388 59.039L39.386 59.2154C39.8777 59.8042 40.3412 60.4222 40.7765 61.058L40.9486 61.3093L41.1615 61.0915C42.1598 60.0704 43.2778 59.1635 44.4868 58.3993L44.7281 58.2468L44.5452 58.0278C44.0588 57.4453 43.6343 56.8171 43.2718 56.1544Z" fill="#333333" stroke="#333333" stroke-width="0.5"/>
</svg>
