<svg width="58" height="74" viewBox="0 0 58 74" fill="none" xmlns="http://www.w3.org/2000/svg">
<path d="M5.47994 0.0393402C2.71634 0.0393402 0.439941 2.31574 0.439941 5.07934V52.1193C0.439941 54.8829 2.71634 57.1593 5.47994 57.1593H23.1199V70.5993H18.9199C18.8695 70.5993 18.8107 70.5993 18.7603 70.5993C17.8363 70.6413 17.1139 71.4309 17.1559 72.3549C17.1979 73.2789 17.9959 74.0013 18.9199 73.9593H39.08C40.004 73.9761 40.7684 73.2285 40.7852 72.3045C40.802 71.3805 40.0544 70.6161 39.1304 70.5993C39.1136 70.5993 39.0968 70.5993 39.08 70.5993H34.88V57.1593H52.52C55.2836 57.1593 57.56 54.8829 57.56 52.1193V5.07934C57.56 2.31574 55.2836 0.0393402 52.52 0.0393402C51.596 0.0225402 50.8316 0.77014 50.8148 1.69414C50.798 2.61814 51.5456 3.38254 52.4696 3.39934C52.4864 3.39934 52.5032 3.39934 52.52 3.39934C53.4776 3.39934 54.2 4.12174 54.2 5.07934V52.1193C54.2 53.0769 53.4776 53.7993 52.52 53.7993H5.47994C4.52234 53.7993 3.79994 53.0769 3.79994 52.1193V5.07934C3.79994 4.12174 4.52234 3.39934 5.47994 3.39934H45.8C46.724 3.41614 47.4884 2.66854 47.5052 1.74454C47.522 0.82054 46.7744 0.0561402 45.8504 0.0393402C45.8336 0.0393402 45.8168 0.0393402 45.8 0.0393402H5.47994ZM19.6843 10.9593C17.9371 10.9593 16.5511 11.9589 15.9043 13.5549L15.8791 13.5297L15.8035 13.6893L10.9231 23.6685C10.8979 23.7189 10.8643 23.7693 10.8475 23.8281C9.61274 25.0629 8.83994 26.7765 8.83994 28.6497V38.6793C8.83994 39.6033 9.59594 40.3593 10.5199 40.3593H12.1999V44.5593C12.1999 45.4833 12.9559 46.2393 13.8799 46.2393H20.5999C21.5239 46.2393 22.2799 45.4833 22.2799 44.5593V40.3593H35.72V44.5593C35.72 45.4833 36.476 46.2393 37.4 46.2393H44.12C45.044 46.2393 45.8 45.4833 45.8 44.5593V40.3593H47.48C48.404 40.3593 49.16 39.6033 49.16 38.6793V28.6497C49.16 26.7597 48.3788 25.0293 47.1356 23.7945C47.1188 23.7525 47.102 23.7021 47.0852 23.6601L42.2048 13.6809L42.1292 13.5213L42.104 13.5465C41.4572 11.9505 40.0712 10.9509 38.324 10.9509H19.6843V10.9593ZM19.6843 14.3193H38.324C38.4164 14.3193 39.0212 14.7393 39.0632 14.8485C39.08 14.8989 39.0968 14.9577 39.1136 15.0081L42.4736 21.8877H15.5347L18.8947 15.0081C18.9115 14.9577 18.9283 14.9073 18.9451 14.8485C18.9871 14.7393 19.5919 14.3193 19.6843 14.3193ZM15.4003 25.2393H42.5996C44.3552 25.2393 45.8 26.6925 45.8 28.6497V36.9993H12.1999V28.6497C12.1999 26.6925 13.6447 25.2393 15.4003 25.2393ZM15.5599 40.3593H18.9199V42.8793H15.5599V40.3593ZM39.08 40.3593H42.44V42.8793H39.08V40.3593ZM26.4799 57.1593H31.52V70.5993H26.4799V57.1593Z" fill="#333333"/>
<path d="M14.0635 28.5811H18.2608C18.2813 28.5811 18.2915 28.5811 18.3002 28.5811C19.6673 28.5906 20.7733 29.6966 20.7828 31.0637C20.7828 31.0724 20.7828 31.0826 20.7828 31.1031C20.7828 31.1237 20.7828 31.1339 20.7828 31.1426C20.7733 32.5097 19.6673 33.6157 18.3002 33.6252C18.2915 33.6252 18.2813 33.6252 18.2608 33.6252H14.0635V28.5811Z" fill="#127BD7"/>
<path d="M44.3394 28.5811H40.1421C40.1216 28.5811 40.1113 28.5811 40.1026 28.5811C38.7355 28.5906 37.6295 29.6966 37.62 31.0637C37.62 31.0724 37.62 31.0826 37.62 31.1031C37.62 31.1237 37.62 31.1339 37.62 31.1426C37.6295 32.5097 38.7355 33.6157 40.1026 33.6252C40.1113 33.6252 40.1216 33.6252 40.1421 33.6252H44.3394V28.5811Z" fill="#127BD7"/>
</svg>
