<svg width="72" height="64" viewBox="0 0 72 64" fill="none" xmlns="http://www.w3.org/2000/svg">
<path d="M70.759 40.7452C69.0773 37.8302 65.4895 36.9332 62.5745 38.5029C62.4624 38.615 62.2381 38.7271 62.126 38.7271L57.5292 41.3058C54.8384 42.7633 52.2597 44.4451 49.7931 46.1268C50.2416 45.342 50.3537 44.333 50.0173 43.5481C49.681 42.3148 48.3356 40.7452 44.1872 40.4089C35.7785 39.8483 34.2088 38.2786 34.0967 38.1665C33.3119 37.1575 32.3028 36.3726 31.2938 35.8121C19.6336 29.1971 8.42185 39.0634 7.97338 39.3998L1.47058 42.7633C1.02211 42.9876 0.797879 43.3239 0.573645 43.7724C0.461527 44.2208 0.461527 44.6693 0.685762 45.1178L9.54302 61.599C9.76726 62.0475 10.1036 62.2717 10.5521 62.496C10.6642 62.496 10.8884 62.496 11.0005 62.496C11.3369 62.496 11.6733 62.3838 11.8975 62.2717L18.5124 58.1234H18.6245C19.1851 57.787 19.8578 57.787 20.4184 58.1234C28.3787 62.3838 33.3119 63.2808 36.1148 63.2808C36.6754 63.2808 37.236 63.2808 37.7966 63.1687C39.4783 63.0565 53.8293 61.9354 68.7409 48.1449L69.9742 46.9117C71.656 45.342 71.9923 42.7633 70.759 40.7452ZM11.7854 58.5718L4.60987 45.1178L8.30973 43.2118L15.3731 56.2174L11.7854 58.5718ZM67.5076 44.5572L66.3865 45.6784C51.9233 59.1324 37.6845 59.8051 37.5723 59.8051H37.3481C35.8906 60.0294 31.6301 60.1415 22.1002 55.0962C21.3153 54.6477 20.5305 54.4235 19.6336 54.5356C19.2972 54.5356 18.9609 54.5356 18.5124 54.6477L11.3369 41.3058C14.0277 39.2877 21.988 34.4666 29.7241 38.8392C30.5089 39.2877 31.1817 39.8483 31.7422 40.521C33.3119 42.427 37.4602 43.5481 44.1872 43.9966C45.1963 43.9966 46.0932 44.2208 46.9902 44.6693C46.9902 44.7814 46.7659 45.2299 45.869 46.0147C43.6267 47.9207 37.6845 49.9388 31.1817 47.6965C30.2847 47.3601 29.3878 47.8086 29.0514 48.7055C28.8272 49.3782 29.0514 50.1631 29.612 50.6115C29.8362 50.8358 30.1726 50.9479 30.5089 51.06C31.6301 51.5085 32.7513 51.7327 33.8725 51.8448C45.9811 52.8539 51.6991 49.2661 51.6991 49.2661L59.4352 44.4451L64.1441 41.7543L64.2562 41.6421C65.3774 40.8573 67.0592 41.0816 67.844 42.2027C67.844 42.2027 67.9561 42.3148 67.9561 42.427C68.1803 43.0997 68.0682 43.9966 67.5076 44.5572Z" fill="#333333"/>
<path d="M45.3082 16.5278C44.1871 16.5278 43.2901 17.4248 43.2901 18.4338V18.5459C43.2901 19.6671 44.1871 20.5641 45.3082 20.5641C46.4294 20.5641 47.3263 19.6671 47.3263 18.5459C47.3263 17.9854 47.1021 17.5369 46.7658 17.0884C46.3173 16.7521 45.8688 16.5278 45.3082 16.5278Z" fill="#127BD7"/>
<path d="M37.9089 13.1641C39.03 13.2763 39.927 12.3793 40.0391 11.2582C40.1512 10.137 39.2543 9.24005 38.1331 9.12793C38.021 9.12793 37.9089 9.12793 37.7967 9.12793C36.6756 9.12793 35.7786 10.0249 35.7786 11.146C35.8907 12.2672 36.7877 13.1641 37.9089 13.1641Z" fill="#127BD7"/>
<path d="M36.0025 18.658C36.0025 19.1065 36.2267 19.555 36.5631 19.8913C37.2358 20.564 38.357 20.564 39.0297 19.8913L46.6536 12.1552C47.3263 11.4825 47.3263 10.4735 46.6536 9.80076C46.3173 9.46441 45.8688 9.35229 45.4204 9.35229C44.9719 9.35229 44.5234 9.57653 44.1871 9.80076L36.5631 17.4247C36.2267 17.7611 36.0025 18.2096 36.0025 18.658Z" fill="#127BD7"/>
<path d="M41.6088 28.9728C49.457 28.9728 55.7356 22.5821 55.7356 14.846C55.7356 6.9978 49.3449 0.719238 41.6088 0.719238C33.8727 0.719238 27.4821 6.9978 27.4821 14.846C27.4821 22.6942 33.7606 28.9728 41.6088 28.9728ZM41.6088 4.08276C47.551 4.08276 52.3721 8.9038 52.3721 14.846C52.3721 20.7882 47.551 25.6093 41.6088 25.6093C35.6666 25.6093 30.8456 20.7882 30.8456 14.846C30.8456 8.9038 35.6666 4.08276 41.6088 4.08276Z" fill="#333333"/>
</svg>
