<svg width="80" height="80" viewBox="0 0 80 80" fill="none" xmlns="http://www.w3.org/2000/svg">
<path d="M78.9999 79.4529H0.991325C0.529316 79.4529 0.165039 79.0798 0.165039 78.6266C0.165039 70.8347 6.48213 64.5176 14.2741 64.5176H65.726C73.518 64.5176 79.835 70.8347 79.835 78.6266C79.835 79.0798 79.4619 79.4529 78.9999 79.4529ZM4.66075 76.1389H75.3304C75.8813 76.1389 76.2811 75.6147 76.139 75.0816C74.9573 70.9057 71.1102 67.8405 66.5611 67.8405H13.4389C8.88991 67.8405 5.04279 70.9057 3.86112 75.0816C3.71007 75.6058 4.10989 76.1389 4.66075 76.1389Z" fill="#333333"/>
<path d="M65.4417 67.8407C64.5266 67.8407 63.7803 67.0944 63.7803 66.1793V58.4317C63.7803 57.5166 64.5266 56.7703 65.4417 56.7703C66.3569 56.7703 67.1032 57.5166 67.1032 58.4317V66.1793C67.1032 67.0944 66.3658 67.8407 65.4417 67.8407Z" fill="#333333"/>
<path d="M65.868 45.8329C65.8058 45.8329 65.7525 45.8329 65.6903 45.824C64.7751 45.7263 64.1177 44.9089 64.2154 44.0027C64.3043 43.203 64.3398 42.3767 64.3398 41.5593C64.3398 34.7802 61.3634 28.3832 56.1835 24.003C56.068 23.9052 55.9437 23.8075 55.8193 23.7009C55.1085 23.1234 54.993 22.0839 55.5705 21.3642C56.148 20.6534 57.1875 20.5379 57.9072 21.1154C58.0494 21.2309 58.1826 21.3464 58.3248 21.4619C64.2598 26.4729 67.6627 33.794 67.6627 41.5505C67.6627 42.4834 67.6094 43.4163 67.5117 44.3403C67.4228 45.2021 66.7032 45.8329 65.868 45.8329Z" fill="#333333"/>
<path d="M41.3817 67.8406C30.1779 67.8406 20.1914 60.7239 16.5309 50.1421C16.2288 49.2803 16.6908 48.3296 17.5615 48.0275C18.4322 47.7343 19.374 48.1875 19.6761 49.0582C22.8657 58.3072 31.5906 64.5177 41.3817 64.5177C47.9475 64.5177 54.2113 61.6924 58.5738 56.7791C59.1779 56.0949 60.2352 56.0327 60.9193 56.6369C61.6035 57.2411 61.6657 58.2895 61.0615 58.9825C56.0682 64.6066 48.8982 67.8406 41.3817 67.8406Z" fill="#333333"/>
<path d="M41.3817 59.5333C34.9225 59.5333 28.9252 56.0416 25.7356 50.4175C25.2825 49.6179 25.5668 48.605 26.3575 48.1519C27.1572 47.6988 28.17 47.9831 28.6231 48.7738C31.2264 53.3584 36.113 56.2104 41.3817 56.2104C49.4669 56.2104 56.0416 49.6357 56.0416 41.5505C56.0416 36.8238 53.7405 32.3547 49.8845 29.6004C49.1381 29.0674 48.9693 28.0367 49.4935 27.2815C50.0266 26.5352 51.0573 26.3575 51.8125 26.8906C56.5392 30.2579 59.3646 35.7398 59.3646 41.5416C59.3557 51.4748 51.2972 59.5333 41.3817 59.5333Z" fill="#333333"/>
<path d="M62.4031 58.9825C57.9785 58.9825 54.3801 55.3841 54.3801 50.9595C54.3801 46.5349 57.9785 42.9365 62.4031 42.9365C66.8277 42.9365 70.4261 46.5349 70.4261 50.9595C70.4261 55.3841 66.8277 58.9825 62.4031 58.9825ZM62.4031 46.2594C59.8087 46.2594 57.703 48.374 57.703 50.9595C57.703 53.545 59.8176 55.6596 62.4031 55.6596C64.9886 55.6596 67.1032 53.545 67.1032 50.9595C67.1032 48.3651 64.9975 46.2594 62.4031 46.2594Z" fill="#333333"/>
<path d="M39.9957 51.235H6.80208C5.88695 51.235 5.14062 50.4887 5.14062 49.5736C5.14062 48.6584 5.88695 47.9121 6.80208 47.9121H39.9957C40.9108 47.9121 41.6572 48.6584 41.6572 49.5736C41.6572 50.4887 40.9108 51.235 39.9957 51.235Z" fill="#333333"/>
<path d="M37.5167 36.6549L32.8255 31.9637C31.1285 30.2667 31.1285 27.5302 32.8255 25.8332L52.7985 5.86015C54.4955 4.16315 57.232 4.16315 58.929 5.86015L63.6202 10.5513C65.3172 12.2483 65.3172 14.9848 63.6202 16.6818L43.6472 36.6549C41.9591 38.343 39.2137 38.343 37.5167 36.6549ZM37.5167 31.9637C39.2137 33.6607 41.9502 33.6607 43.6472 31.9637L58.929 16.6818C60.626 14.9848 60.626 12.2483 58.929 10.5513C57.232 8.85433 54.4955 8.85433 52.7985 10.5513L37.5167 25.8332C35.8285 27.5213 35.8285 30.2667 37.5167 31.9637Z" fill="#127BD7"/>
<path d="M63.6293 12.666C63.1673 12.666 62.6964 12.4705 62.3676 12.0885C61.7901 11.4132 61.9056 10.3915 62.5276 9.76066L65.8682 6.41997L63.0606 3.61237L59.3201 7.35288C58.7337 7.93927 57.792 8.08143 57.1256 7.60165C56.2727 6.9886 56.2016 5.78915 56.9124 5.06948L60.2886 1.69326C61.8168 0.165073 64.3045 0.165073 65.8327 1.69326L67.7874 3.64791C69.3155 5.1761 69.3155 7.66384 67.7874 9.19203L64.8021 12.1773C64.4822 12.5061 64.0557 12.666 63.6293 12.666Z" fill="#127BD7"/>
</svg>
