<svg width="64" height="80" viewBox="0 0 64 80" fill="none" xmlns="http://www.w3.org/2000/svg">
<path d="M6.91818 43.7523C8.08612 46.4091 9.68602 50.048 9.78735 51.767C10.11 57.2484 11.2326 67.4194 15.123 73.9417C15.2626 74.1763 15.4119 74.4385 15.5701 74.7168C16.7629 76.8117 18.3957 79.68 20.9298 79.976C21.0578 79.9911 21.1956 80 21.3405 80C22.1973 80 23.3359 79.6898 24.4816 78.4588C27.3348 75.3923 27.4263 70.1872 27.4992 66.0052C27.5161 65.0693 27.5312 64.1858 27.5783 63.4321C27.7054 61.394 28.3898 54.7232 31.8696 54.4628C31.915 54.4593 31.9567 54.4459 32.0003 54.4397C32.0447 54.4468 32.0865 54.4593 32.1318 54.4628C36.0045 54.7526 36.5574 60.6233 36.8436 67.6861C36.9387 70.0201 37.0204 72.0369 37.3635 73.4999C37.8959 75.7673 38.6959 78.2392 40.5909 79.3796C41.2255 79.7618 41.9277 79.9547 42.6637 79.9547C43.0423 79.9547 43.4298 79.9031 43.8218 79.8C46.0972 79.2018 47.3905 76.7371 48.3353 74.9381C48.53 74.5674 48.7087 74.2234 48.8784 73.939C52.7671 67.4176 53.8897 57.2475 54.2123 51.7661C54.3137 50.0462 55.9136 46.4082 57.0815 43.7514C57.7552 42.2191 58.3374 40.8956 58.6832 39.8894C62.0208 30.1753 68.2329 12.0937 56.0087 2.82047C52.8835 0.449054 48.6118 -0.470893 43.9854 0.229511C41.5962 0.590379 39.5918 1.15124 37.8231 1.64454C35.8125 2.20629 34.0757 2.69159 32.1461 2.82047C32.0954 2.82403 32.0492 2.83736 32.0003 2.84536C31.9514 2.83825 31.9052 2.82403 31.8545 2.82047C30.7835 2.74937 29.7693 2.56182 28.7374 2.31828C28.6076 2.27473 28.4743 2.22762 28.3445 2.18584C28.1916 2.13607 28.037 2.11474 27.8832 2.10762C27.3294 1.96274 26.7668 1.80986 26.1775 1.64454C24.4087 1.15035 22.4035 0.590379 20.0152 0.229511C15.387 -0.472671 11.1171 0.449054 7.99101 2.82047C-4.23228 12.0937 1.97892 30.1753 5.3165 39.8894C5.66226 40.8965 6.24445 42.22 6.91818 43.7523ZM10.1393 5.6532C13.3169 3.24445 17.3585 3.4231 19.4837 3.74486C21.6569 4.07373 23.4683 4.57948 25.2211 5.06923C26.0611 5.30388 26.8841 5.5252 27.7134 5.72608C31.307 6.93046 34.5593 8.35437 38.4852 11.1649C38.9928 11.5284 39.5385 11.9071 40.0994 12.2946C40.4078 12.5079 40.7598 12.6092 41.1082 12.6092C41.6726 12.6092 42.2273 12.3417 42.5721 11.8422C43.1303 11.0342 42.9277 9.92762 42.1197 9.36943C41.5748 8.99256 41.046 8.62547 40.5536 8.27349C39.1208 7.24777 37.7697 6.40782 36.472 5.67986C37.2382 5.48965 38.0017 5.28522 38.7786 5.06834C40.5305 4.57859 42.3428 4.07284 44.516 3.74397C46.643 3.42221 50.6845 3.24356 53.8595 5.65231C62.8021 12.4359 59.8458 25.5605 55.3207 38.7339C55.023 39.6006 54.4425 40.9214 53.8275 42.3204C52.4098 45.5451 50.8028 49.2 50.6632 51.5572C50.3592 56.7151 49.3273 66.2452 45.8244 72.1178C45.6253 72.4511 45.4137 72.8529 45.1862 73.2857C44.6591 74.291 43.6769 76.162 42.917 76.362C42.605 76.442 42.4912 76.3744 42.4228 76.3327C41.8486 75.9869 41.3109 74.7603 40.8238 72.6866C40.558 71.5534 40.478 69.6042 40.3945 67.5412C40.1189 60.7576 39.7421 51.4674 32.3958 50.9163C32.2616 50.9083 32.1301 50.9181 32.0021 50.9377C31.8723 50.9172 31.739 50.9075 31.6021 50.9163C27.1908 51.247 24.5012 55.6139 24.0283 63.2108C23.9759 64.0436 23.9599 64.9662 23.943 65.9421C23.8799 69.5171 23.8025 73.9666 21.8773 76.0358C21.5698 76.3664 21.3769 76.4411 21.3422 76.4429C20.8783 76.4429 19.9743 75.2696 18.6579 72.956C18.4873 72.6555 18.3255 72.372 18.1744 72.1187C14.6724 66.247 13.6405 56.716 13.3365 51.5572C13.1978 49.2009 11.5908 45.5451 10.1722 42.3204C9.55714 40.9223 8.97673 39.6006 8.67897 38.7339C4.15301 25.5614 1.19763 12.4368 10.1393 5.6532Z" fill="#333333"/>
<path d="M41.1632 29.6556C42.7827 29.6556 44.0955 28.3427 44.0955 26.7233C44.0955 25.1038 42.7827 23.791 41.1632 23.791C39.5438 23.791 38.231 25.1038 38.231 26.7233C38.231 28.3427 39.5438 29.6556 41.1632 29.6556Z" fill="#333333"/>
<path d="M22.8374 29.6556C24.4569 29.6556 25.7697 28.3427 25.7697 26.7233C25.7697 25.1038 24.4569 23.791 22.8374 23.791C21.218 23.791 19.9052 25.1038 19.9052 26.7233C19.9052 28.3427 21.218 29.6556 22.8374 29.6556Z" fill="#333333"/>
<path d="M23.1911 35.3651C22.472 36.0336 22.432 37.1588 23.1004 37.8779C25.5065 40.4644 28.6672 41.8883 32.0003 41.8883C35.3335 41.8883 38.4942 40.4644 40.9002 37.8779C41.5687 37.1588 41.5287 36.0344 40.8096 35.3651C40.0905 34.6959 38.9661 34.7367 38.2968 35.4558C36.5716 37.3108 34.3353 38.3321 32.0003 38.3321C29.6653 38.3321 27.429 37.3108 25.7038 35.4558C25.0354 34.7376 23.9101 34.6967 23.1911 35.3651Z" fill="#127BD7"/>
</svg>
