<svg width="76" height="78" viewBox="0 0 76 78" fill="none" xmlns="http://www.w3.org/2000/svg">
<path d="M0.580269 71.6038C0.826818 73.0056 1.49155 74.3 2.48717 75.3171C3.4828 76.3342 4.76275 77.0265 6.15895 77.3029C6.4374 77.3571 6.71884 77.3946 7.00177 77.4152H7.4272H14.844C27.4783 77.4152 40.1126 77.327 51.1657 77.1423L59.1283 76.9898H60.0755H60.541H61.1431C62.3395 76.8718 63.4802 76.4256 64.4391 75.7004C65.398 74.9752 66.1379 73.9992 66.5773 72.8801C66.8441 72.1907 66.9881 71.4599 67.0027 70.7208C67.0027 70.3195 67.0027 70.1188 67.0027 69.8298V69.0272L66.8823 65.985C66.8127 64.2833 66.7378 62.7261 66.6575 61.3133H70.4061H70.7432C70.9675 61.2942 71.1901 61.2593 71.4094 61.209C72.0692 61.0529 72.6879 60.7572 73.2238 60.3418C73.7596 59.9264 74.2002 59.401 74.5158 58.8009C74.7091 58.3987 74.8468 57.972 74.9252 57.5327C74.9696 57.3155 74.9991 57.0956 75.0135 56.8745V56.5454V54.94V52.1065L74.9252 46.584V45.9098V45.7251V45.4281C74.9076 45.2286 74.8781 45.0302 74.8369 44.8342C74.6651 44.0595 74.2944 43.343 73.7613 42.7552C73.2432 42.18 72.5851 41.7486 71.8509 41.503C71.2316 41.3065 70.5804 41.2302 69.9325 41.2782L66.6656 41.3746C66.8421 38.9665 66.9947 35.9805 67.1231 32.545V31.8707C67.1413 31.5713 67.1413 31.2711 67.1231 30.9717C67.0585 30.3413 66.8988 29.7242 66.6495 29.1416C66.2366 28.2 65.6081 27.3687 64.8147 26.7147C64.0213 26.0608 63.0853 25.6025 62.0822 25.377C61.4436 25.2427 60.7923 25.1781 60.1397 25.1843H59.9069C59.9069 24.9837 59.9792 24.767 60.0113 24.5502C60.0835 24.0927 60.1477 23.6031 60.2039 23.0893L60.2842 22.2866V21.8773C60.2939 21.7035 60.2939 21.5293 60.2842 21.3555C60.2799 20.4685 60.0773 19.5936 59.6912 18.795C59.3051 17.9964 58.7453 17.2943 58.0527 16.7401C57.3059 16.1394 56.4291 15.7216 55.4921 15.52C55.2513 15.52 55.0105 15.4317 54.7697 15.4156C54.5289 15.3996 54.2319 15.4156 54.1115 15.4156H53.2526C49.3286 15.3452 45.4062 15.63 41.5334 16.2665C38.9407 13.4892 36.051 10.5112 33.1132 7.56535C32.9082 7.36027 32.6648 7.19758 32.3969 7.08658C32.1291 6.97559 31.8419 6.91846 31.552 6.91846C31.262 6.91846 30.9749 6.97559 30.707 7.08658C30.4391 7.19758 30.1957 7.36027 29.9907 7.56535C26.9566 10.5995 23.9786 13.6738 21.3137 16.5233C18.9056 16.3468 15.8795 16.1862 12.444 16.0498L9.66669 15.9454L8.21383 15.8973H7.47536C7.1484 15.8887 6.82124 15.9021 6.49608 15.9374C5.06704 16.0845 3.72666 16.6997 2.68331 17.6872C1.59962 18.7454 0.908812 20.1411 0.724753 21.6445C0.586605 22.9267 0.817757 24.2217 1.39098 25.377C1.07794 31.4774 0.877263 39.6889 0.716726 49.0402C0.620403 54.5627 0.548161 60.4866 0.5 66.603V68.9068V70.3275V70.7369C0.506212 71.0274 0.533036 71.3171 0.580269 71.6038ZM53.2526 19.8063H54.5048C54.5771 19.8063 54.6493 19.8063 54.7296 19.8063C55.0159 19.8586 55.2889 19.9678 55.5323 20.1274C55.7862 20.2915 56.005 20.5044 56.1759 20.7539C56.3468 21.0033 56.4663 21.2842 56.5276 21.5803C56.554 21.6801 56.5701 21.7823 56.5758 21.8853V22.2947L56.656 23.0974C56.7122 23.6111 56.7764 24.1007 56.8487 24.5583C56.8487 24.7509 56.9129 24.9435 56.945 25.1201C54.4567 25.0639 51.864 25.0238 49.1991 24.9837C47.9629 23.3783 46.3254 21.508 44.3829 19.3649C47.3296 19.6688 50.2903 19.8162 53.2526 19.8063ZM31.5801 12.2129C36.5327 17.1093 41.4852 21.7408 45.2258 24.9355C39.7113 24.8713 33.9881 24.8472 28.2168 24.8472C24.7893 24.8472 21.3699 24.8472 17.9986 24.8472C21.7231 21.6927 26.6355 17.0772 31.5801 12.2129ZM5.31613 20.288C5.74224 19.8255 6.30451 19.5106 6.9215 19.3889C7.09108 19.3573 7.26281 19.3385 7.43522 19.3328H8.1737L9.62656 19.2846L12.4039 19.1802C14.8842 19.0839 17.1397 18.9715 19.1224 18.8511C17.0193 21.1629 15.2213 23.2418 13.8808 24.9275H13.3189L9.71486 24.9676H7.94092C7.52609 25.0043 7.10836 24.9908 6.69675 24.9275C6.05139 24.7843 5.48052 24.4104 5.09137 23.876C4.70422 23.3412 4.51418 22.6888 4.55357 22.0298C4.60824 21.3808 4.8764 20.7683 5.31613 20.288ZM5.74958 28.8928C6.47845 29.0601 7.2254 29.1356 7.97302 29.1175H9.74696L13.351 29.1577C18.1672 29.2058 23.192 29.2299 28.1927 29.2299C38.1942 29.2299 48.1957 29.1416 56.937 28.957L60.1477 28.8847C60.5347 28.8456 60.9246 28.8456 61.3116 28.8847C61.6234 28.9409 61.9242 29.0466 62.2026 29.1978C62.7603 29.4935 63.2141 29.9529 63.503 30.5142C63.6453 30.7865 63.7454 31.0788 63.8 31.3811C63.8281 31.5377 63.8468 31.6959 63.8561 31.8547V32.5289C63.9926 35.9644 64.1451 38.9504 64.3217 41.3986C59.9471 41.5672 56.1905 41.7839 53.4373 42.0488C53.1643 42.0488 52.9556 42.6107 52.9717 43.2288C52.9878 43.8468 53.1884 44.2321 53.4373 44.2562C57.2902 44.6255 63.0695 44.9064 69.8442 45.0589C70.4141 45.0589 70.3258 45.0589 70.4542 45.1311C70.5404 45.172 70.615 45.2338 70.6711 45.3109C70.7272 45.3881 70.763 45.478 70.7753 45.5726V46.4957L70.687 52.0102V54.8437V56.449C70.687 56.449 70.687 56.449 70.687 56.4972C70.6885 56.5266 70.6885 56.5561 70.687 56.5855C70.6483 56.6429 70.5959 56.6898 70.5345 56.722C70.5052 56.7254 70.4755 56.7254 70.4462 56.722H67.2595C63.3906 56.722 59.5297 56.722 55.7811 56.7942H54.3844H53.6861C53.4453 56.7942 53.2205 56.7942 53.068 56.7942C52.382 56.7909 51.7013 56.6743 51.0533 56.449C49.815 56.0548 48.7241 55.2968 47.9228 54.2738C47.247 53.2713 46.8781 52.0936 46.8609 50.8847C46.8438 49.6758 47.1794 48.4882 47.8265 47.467C48.3565 46.6261 49.0606 45.9088 49.8914 45.3632C50.7223 44.8176 51.6604 44.4566 52.6426 44.3044C52.8673 44.3044 53.052 43.7345 53.0359 43.1244C53.0359 42.5866 52.8031 42.1692 52.5222 42.1612C51.2704 42.1266 50.0262 42.3678 48.878 42.8676C47.466 43.4744 46.2334 44.4335 45.298 45.6529C44.7667 46.3338 44.3318 47.0847 44.0057 47.8844C43.6674 48.7436 43.4512 49.6461 43.3635 50.5653C43.1806 52.5866 43.6534 54.6131 44.712 56.3447C45.5892 57.7553 46.7967 58.931 48.2303 59.7702C49.6638 60.6093 51.2802 61.0866 52.9396 61.1608C53.2526 61.1608 53.4774 61.1608 53.7423 61.1608H54.4406H55.8373C58.6387 61.1608 61.5203 61.217 64.41 61.225C64.3297 62.6431 64.2548 64.203 64.1852 65.9047L64.0648 68.9469V69.7496C64.0648 69.9984 64.0648 70.3436 64.0648 70.488C64.0108 70.8881 63.8828 71.2746 63.6876 71.6279C63.3587 72.3357 62.79 72.9043 62.0822 73.2332C61.7197 73.3943 61.3306 73.4869 60.9344 73.5062H60.1317H59.1845L51.2218 73.3536C40.1688 73.169 27.5345 73.0807 14.9002 73.0807H7.31482C7.20789 73.087 7.10068 73.087 6.99374 73.0807C6.46125 72.9782 5.9717 72.7185 5.58825 72.335C5.20481 71.9516 4.94507 71.462 4.84254 70.9295C4.83386 70.8227 4.83386 70.7153 4.84254 70.6085V70.4399V68.995V66.6913C4.79438 60.5749 4.72214 54.651 4.62582 49.1285C4.48936 41.1017 4.30474 33.9898 4.07196 28.2586C4.60217 28.548 5.16924 28.7641 5.75761 28.9008L5.74958 28.8928Z" fill="#333333"/>
<path d="M53.4053 53.5433C54.7264 53.5433 55.7973 52.4724 55.7973 51.1513C55.7973 49.8302 54.7264 48.7593 53.4053 48.7593C52.0842 48.7593 51.0133 49.8302 51.0133 51.1513C51.0133 52.4724 52.0842 53.5433 53.4053 53.5433Z" fill="#127BD7"/>
<path d="M65.1164 12.2931C67.2837 12.2209 70.663 8.82551 70.7352 6.67431C70.4911 6.36946 70.2227 6.08491 69.9325 5.82346C69.7055 5.58105 69.4585 5.35818 69.1941 5.15723C67.0108 5.22144 63.6234 8.59273 63.5753 10.776C63.8192 11.0861 64.0876 11.376 64.3779 11.6429C64.6062 11.8792 64.8532 12.0966 65.1164 12.2931Z" fill="#127BD7"/>
<path d="M67.7011 20.5606C67.6891 20.9039 67.7052 21.2475 67.7492 21.5881C69.2824 23.0731 73.9139 23.057 75.447 21.5881C75.4929 21.2046 75.509 20.8182 75.4952 20.4322C75.5063 20.0997 75.4902 19.7668 75.447 19.4369C73.9139 17.9359 69.2824 17.9278 67.7492 19.4369C67.7055 19.8098 67.6894 20.1854 67.7011 20.5606Z" fill="#127BD7"/>
<path d="M55.661 8.38389C56.0042 8.39586 56.3478 8.37976 56.6884 8.33573C58.1734 6.8026 58.1573 2.17109 56.6884 0.637955C56.3049 0.591994 55.9185 0.575891 55.5325 0.589794C55.2 0.578714 54.8671 0.594821 54.5372 0.637955C53.0362 2.17109 53.0281 6.8026 54.5372 8.33573C54.9101 8.37949 55.2857 8.39558 55.661 8.38389Z" fill="#127BD7"/>
</svg>
