<svg width="174" height="174" viewBox="0 0 174 174" fill="none" xmlns="http://www.w3.org/2000/svg">
<path d="M102.293 20.3906C98.9577 20.3906 95.7863 21.4458 93.1233 23.4373L93.1182 23.4424L82.7703 31.2051C85.0466 24.7321 87 18.3104 87 15.293C87 6.86009 80.1399 0 71.707 0C63.2741 0 56.4141 6.86009 56.4141 15.293C56.4141 18.3104 58.3675 24.7321 60.6438 31.2051L50.2959 23.4424L50.2908 23.4373C47.6277 21.4458 44.4563 20.3906 41.1211 20.3906C32.6882 20.3906 25.8281 27.2507 25.8281 35.6836C25.8281 44.1165 32.6882 50.9766 41.1211 50.9766V40.7812C38.3085 40.7812 36.0234 38.4961 36.0234 35.6836C36.0183 31.7557 41.0463 29.2419 44.1776 31.6014L44.1783 31.6007L67.5215 49.1129H71.707H75.8925L99.2357 31.6007L99.2364 31.6014C102.358 29.2517 107.391 31.7557 107.391 35.6836C107.391 38.4961 105.106 40.7812 102.293 40.7812V50.9766C110.726 50.9766 117.586 44.1165 117.586 35.6836C117.586 27.2507 110.726 20.3906 102.293 20.3906V20.3906ZM71.707 31.8056C68.8544 24.0844 66.6342 17.2444 66.6094 15.293C66.6094 12.4804 68.8945 10.1953 71.707 10.1953C74.5196 10.1953 76.8047 12.4804 76.8047 15.2879C76.7799 17.2396 74.5597 24.0844 71.707 31.8056Z" fill="#FF9827"/>
<path d="M99.2357 31.6007L99.2364 31.6014C102.358 29.2517 107.391 31.7557 107.391 35.6836C107.391 38.4961 105.106 40.7812 102.293 40.7812V50.9766C110.726 50.9766 117.586 44.1165 117.586 35.6836C117.586 27.2507 110.726 20.3906 102.293 20.3906C98.9577 20.3906 95.7863 21.4458 93.1233 23.4373L93.1182 23.4424L82.7703 31.2051C85.0466 24.7321 87 18.3104 87 15.293C87 6.86009 80.1399 0 71.707 0V10.1953C74.5196 10.1953 76.8047 12.4804 76.8047 15.2879C76.7799 17.2393 74.5597 24.0844 71.707 31.8056V49.1129H75.8925L99.2357 31.6007Z" fill="#FF641A"/>
<path d="M71.707 50.9766H15.6328V174H56.4141L66.6094 163.805H71.707H127.781V50.9766H71.707Z" fill="#5ECEF4"/>
<path d="M71.707 50.9766H127.781V163.805H71.707V50.9766Z" fill="#4895FF"/>
<path d="M87 40.7812L76.8047 50.9766H71.707H66.6094L56.4141 40.7812H5.4375V61.1719H71.707H137.977V40.7812H87Z" fill="#99E6FF"/>
<path d="M137.977 40.7812H87L76.8047 50.9766H71.707V61.1719H137.977V40.7812Z" fill="#5ECEF4"/>
<path d="M71.707 40.7812H56.4141V92.0977L68.0581 102.293H71.707H87V40.7812H71.707Z" fill="#FFC550"/>
<path d="M71.707 40.7812H87V102.293H71.707V40.7812Z" fill="#FF9827"/>
<path d="M168.562 92.0977H117.586L112.488 101.881L112.274 102.293L107.391 92.0977H56.4141V132.879L66.6094 138.191L56.4141 143.074V174H107.391L112.488 164.863L113.079 163.805L117.586 174H168.562V143.074L158.367 137.708L168.562 132.879V92.0977Z" fill="#FF435B"/>
<path d="M117.586 174H168.562V143.074L158.367 137.708L168.562 132.879V92.0977H117.586L112.488 101.881V164.863L113.079 163.805L117.586 174Z" fill="#D0004F"/>
<path d="M132.879 132.879H168.562V143.074H132.879V132.879Z" fill="#FF9827"/>
<path d="M56.4141 132.879H92.0977V143.074H56.4141V132.879Z" fill="#FFC550"/>
<path d="M112.488 92.0977H107.391V174H112.488H117.586V92.0977H112.488Z" fill="#FFC550"/>
<path d="M112.488 92.0977H117.586V174H112.488V92.0977Z" fill="#FF9827"/>
<path d="M132.879 112.488C128.09 112.488 123.515 114.773 120.637 118.606V118.612L112.488 129.482L112.488 129.483L104.336 118.614L104.339 118.612C101.466 114.778 96.8915 112.488 92.0977 112.488C83.6648 112.488 76.8047 119.348 76.8047 127.781C76.8047 136.214 83.6648 143.074 92.0977 143.074H100.182L93.5909 149.665L100.799 156.874L112.488 145.185L124.177 156.874L131.386 149.665L124.794 143.074H132.879C141.312 143.074 148.172 136.214 148.172 127.781C148.172 119.348 141.312 112.488 132.879 112.488ZM92.0977 132.879C89.2851 132.879 87 130.594 87 127.781C87 123.346 93.5165 121.17 96.1748 124.725H96.1799L102.295 132.879H92.0977ZM132.879 132.879H122.678L128.789 124.728L128.792 124.729C129.768 123.43 131.256 122.684 132.879 122.684C135.691 122.684 137.977 124.969 137.977 127.781C137.977 130.594 135.691 132.879 132.879 132.879Z" fill="#FFC550"/>
<path d="M131.385 149.665L124.794 143.074H132.879C141.312 143.074 148.172 136.214 148.172 127.781C148.172 119.348 141.312 112.488 132.879 112.488C128.09 112.488 123.515 114.773 120.637 118.606V118.612L112.488 129.482V145.185L124.177 156.874L131.385 149.665ZM128.789 124.728L128.792 124.729C129.768 123.43 131.256 122.684 132.879 122.684C135.691 122.684 137.977 124.969 137.977 127.781C137.977 130.594 135.691 132.879 132.879 132.879H122.678L128.789 124.728Z" fill="#FF9827"/>
</svg>
