<svg width="40" height="40" viewBox="0 0 40 40" fill="none" xmlns="http://www.w3.org/2000/svg">
<path d="M34.3511 19.9801C31.6042 18.7958 29.3052 16.8321 27.7005 14.3098C25.5315 10.9083 20.7823 8.54688 15.2633 8.54688C7.69648 8.54688 1.5625 12.9838 1.5625 18.4559L1.61297 26.6221C2.65789 38.6175 27.1998 37.2134 30.4356 37.2134C35.1883 37.2134 39.0378 34.5998 39.0378 31.3784V24.005C39.0378 22.434 36.7497 21.0143 34.3511 19.9801ZM29.517 20.5491L24.9096 26.9259C22.9309 26.8853 20.513 26.7615 18.038 26.4601L25.4255 16.2028C26.5476 17.8858 27.9274 19.3502 29.517 20.5491ZM16.9562 11.588C19.1808 11.8223 21.2029 12.5212 22.7875 13.5525L13.9761 25.7868C11.8359 25.3197 9.825 24.6691 8.21031 23.7702L16.9562 11.588ZM12.2701 11.7872L5.40547 21.349C4.84039 20.5127 4.51352 19.5576 4.51352 18.4572C4.51352 15.3539 7.84609 12.6512 12.2701 11.7872ZM35.7792 24.8349C35.061 25.8511 33.1284 26.8924 30.4367 26.8924C30.2104 26.8924 29.882 26.8989 29.4764 26.9067L32.6929 22.4549C32.8571 22.5316 33.0166 22.6165 33.1836 22.6886C34.4508 23.2351 35.2075 23.694 35.6459 24.0146C35.9066 24.2056 35.9665 24.5708 35.7792 24.8349Z" fill="white"/>
</svg>
