<svg width="60" height="60" viewBox="0 0 60 60" fill="none" xmlns="http://www.w3.org/2000/svg">
<path d="M51.5266 29.9701C47.4063 28.1937 43.9579 25.2482 41.5508 21.4646C38.2972 16.3624 31.1734 12.8203 22.8949 12.8203C11.5447 12.8203 2.34375 19.4757 2.34375 27.6839L2.41945 39.9332C3.98684 57.9263 40.7998 55.8202 45.6534 55.8202C52.7824 55.8202 58.5567 51.8998 58.5567 47.0677V36.0075C58.5567 33.651 55.1245 31.5214 51.5266 29.9701ZM44.2755 30.8236L37.3644 40.3889C34.3963 40.328 30.7695 40.1422 27.057 39.6901L38.1382 24.3042C39.8214 26.8287 41.8911 29.0252 44.2755 30.8236ZM25.4343 17.382C28.7712 17.7335 31.8043 18.7819 34.1812 20.3288L20.9641 38.6802C17.7538 37.9795 14.7375 37.0036 12.3155 35.6554L25.4343 17.382ZM18.4051 17.6808L8.1082 32.0235C7.26059 30.7691 6.77027 29.3364 6.77027 27.6858C6.77027 23.0309 11.7691 18.9768 18.4051 17.6808ZM53.6688 37.2524C52.5915 38.7766 49.6925 40.3386 45.6551 40.3386C45.3156 40.3386 44.8229 40.3484 44.2146 40.3601L49.0393 33.6824C49.2857 33.7975 49.5248 33.9247 49.7754 34.0329C51.6762 34.8526 52.8112 35.541 53.4689 36.0219C53.8598 36.3084 53.9497 36.8562 53.6688 37.2524Z" fill="white"/>
</svg>
