<svg width="70" height="70" viewBox="0 0 70 70" fill="none" xmlns="http://www.w3.org/2000/svg">
<path d="M60.1144 34.965C55.3074 32.8925 51.2842 29.4561 48.476 25.042C44.6801 19.0894 36.369 14.9569 26.7107 14.9569C13.4688 14.9569 2.73438 22.7216 2.73438 32.2978L2.8227 46.5886C4.65131 67.5805 47.5997 65.1234 53.2623 65.1234C61.5795 65.1234 68.3162 60.5496 68.3162 54.9121V42.0086C68.3162 39.2593 64.312 36.7749 60.1144 34.965ZM51.6548 35.9607L43.5918 47.1203C40.129 47.0492 35.8977 46.8325 31.5664 46.305L44.4946 28.3548C46.4583 31.3 48.873 33.8627 51.6548 35.9607ZM29.6733 20.2788C33.5664 20.689 37.1051 21.9121 39.8781 23.7168L24.4582 45.1268C20.7128 44.3093 17.1938 43.1707 14.368 41.5978L29.6733 20.2788ZM21.4726 20.6275L9.45957 37.3606C8.47068 35.8972 7.89865 34.2256 7.89865 32.3C7.89865 26.8692 13.7307 22.1394 21.4726 20.6275ZM62.6136 43.461C61.3568 45.2393 57.9746 47.0616 53.2643 47.0616C52.8682 47.0616 52.2934 47.073 51.5837 47.0866L57.2126 39.296C57.4999 39.4302 57.779 39.5787 58.0713 39.7049C60.2889 40.6613 61.6131 41.4643 62.3804 42.0254C62.8365 42.3597 62.9413 42.9987 62.6136 43.461Z" fill="white"/>
</svg>
