<svg width="30" height="30" viewBox="0 0 30 30" fill="none" xmlns="http://www.w3.org/2000/svg">
<path d="M25.7633 14.985C23.7032 14.0968 21.9789 12.624 20.7754 10.7323C19.1486 8.18115 15.5867 6.4101 11.4475 6.4101C5.77236 6.4101 1.17188 9.73781 1.17188 13.8419L1.20973 19.9665C1.99342 28.9631 20.3999 27.91 22.8267 27.91C26.3912 27.91 29.2784 25.9498 29.2784 23.5338V18.0037C29.2784 16.8254 27.5623 15.7607 25.7633 14.985ZM22.1378 15.4117L18.6822 20.1944C17.1981 20.1639 15.3847 20.0711 13.5285 19.845L19.0691 12.152C19.9107 13.4143 20.9456 14.5126 22.1378 15.4117ZM12.7171 8.69092C14.3856 8.8667 15.9022 9.39088 17.0906 10.1643L10.4821 19.34C8.87689 18.9897 7.36875 18.5017 6.15773 17.8276L12.7171 8.69092ZM9.20256 8.84033L4.0541 16.0117C3.63029 15.3845 3.38514 14.6681 3.38514 13.8428C3.38514 11.5154 5.88457 9.48832 9.20256 8.84033ZM26.8344 18.6261C26.2958 19.3883 24.8463 20.1693 22.8275 20.1693C22.6578 20.1693 22.4115 20.1741 22.1073 20.18L24.5197 16.8411C24.6428 16.8987 24.7624 16.9623 24.8877 17.0164C25.8381 17.4262 26.4056 17.7704 26.7345 18.0109C26.9299 18.1542 26.9749 18.428 26.8344 18.6261Z" fill="white"/>
</svg>
