<svg width="50" height="50" viewBox="0 0 50 50" fill="none" xmlns="http://www.w3.org/2000/svg">
<path d="M42.9389 24.9751C39.5053 23.4947 36.6315 21.0401 34.6257 17.8872C31.9144 13.6354 25.9778 10.6836 19.0791 10.6836C9.6206 10.6836 1.95312 16.2298 1.95312 23.0699L2.01621 33.2776C3.32236 48.2719 33.9998 46.5168 38.0445 46.5168C43.9854 46.5168 48.7973 43.2498 48.7973 39.2231V30.0063C48.7973 28.0425 45.9371 26.2679 42.9389 24.9751ZM36.8963 25.6863L31.137 33.6574C28.6636 33.6066 25.6412 33.4519 22.5475 33.0751L31.7818 20.2535C33.1845 22.3572 34.9093 24.1877 36.8963 25.6863ZM21.1952 14.485C23.976 14.7779 26.5036 15.6516 28.4844 16.9406L17.4701 32.2335C14.7948 31.6496 12.2812 30.8363 10.2629 29.7128L21.1952 14.485ZM15.3376 14.734L6.75684 26.6862C6.05049 25.6409 5.64189 24.447 5.64189 23.0715C5.64189 19.1924 9.80762 15.814 15.3376 14.734ZM44.724 31.0437C43.8263 32.3139 41.4104 33.6155 38.0459 33.6155C37.763 33.6155 37.3524 33.6236 36.8455 33.6334L40.8661 28.0687C41.0714 28.1646 41.2707 28.2706 41.4795 28.3607C43.0635 29.0438 44.0094 29.6175 44.5574 30.0183C44.8832 30.257 44.9581 30.7135 44.724 31.0437Z" fill="white"/>
</svg>
