<svg width="50" height="50" viewBox="0 0 50 50" fill="none" xmlns="http://www.w3.org/2000/svg">
<path d="M45.7487 12.2742C43.4688 10.4571 40.2507 8.96943 36.1839 7.85264C28.3625 5.70479 19.5425 5.47295 16.1134 5.47295C7.22842 5.47295 0 12.7015 0 21.5864V28.4136C0 37.2986 7.22842 44.5271 16.1134 44.5271C20.2104 44.5271 23.2872 43.2436 26.5447 41.8849C29.9135 40.4797 33.3968 39.0268 38.2958 39.0268C44.7495 39.0268 50 33.7762 50 27.3226V20.4954C50 17.2885 48.5696 14.5225 45.7487 12.2742ZM44.9264 28.9689C45.2961 29.3618 45.9142 29.3803 46.3068 29.0106C46.9691 28.387 47.5518 27.6922 48.0469 26.944V27.3226C48.0469 32.6994 43.6726 37.0736 38.2958 37.0736C33.0058 37.0736 29.339 38.6031 25.7929 40.0822C22.7209 41.3636 19.8193 42.5739 16.1134 42.5739C8.61143 42.5739 2.4543 36.7094 1.9832 29.3241C4.72539 34.3117 10.031 37.6997 16.1134 37.6997C20.2104 37.6997 23.2872 36.4163 26.5447 35.0575C29.9135 33.6523 33.3968 32.1994 38.2958 32.1994C38.6598 32.1994 39.0274 32.1822 39.3888 32.1484C39.9258 32.0981 40.3203 31.6221 40.27 31.0851C40.2197 30.5481 39.7431 30.1537 39.2066 30.2039C38.9056 30.232 38.5992 30.2464 38.2958 30.2464C33.0058 30.2464 29.339 31.7759 25.7929 33.255C22.7209 34.5363 19.8193 35.7467 16.1134 35.7467C8.30537 35.7467 1.95312 29.3944 1.95312 21.5865C1.95312 13.7785 8.30537 7.42617 16.1134 7.42617C19.4633 7.42617 28.0744 7.65127 35.6667 9.73613C43.8815 11.9921 48.0469 15.612 48.0469 20.4954C48.0469 23.1609 46.9246 25.7463 44.968 27.5885C44.5753 27.9582 44.5566 28.5763 44.9264 28.9689Z" fill="white"/>
<path d="M44.1234 29.5923C43.8937 29.1043 43.3118 28.8948 42.824 29.1245C42.8169 29.1277 42.8077 29.1323 42.8007 29.1357C42.3184 29.377 42.1229 29.9636 42.364 30.4459C42.5351 30.7881 42.88 30.9859 43.2383 30.9859C43.3831 30.9859 43.5299 30.9536 43.6684 30.8856C44.1472 30.6519 44.351 30.076 44.1234 29.5923Z" fill="white"/>
<path d="M23.1627 9.65449L23.1124 9.65039C22.5739 9.6084 22.1041 10.0086 22.0612 10.5463C22.0184 11.0839 22.4194 11.5545 22.957 11.5975L23.0069 11.6014C23.0334 11.6035 23.0597 11.6046 23.0859 11.6046C23.5899 11.6046 24.0173 11.2169 24.0583 10.7059C24.1013 10.1682 23.7003 9.69756 23.1627 9.65449Z" fill="white"/>
<path d="M45.4839 17.8646C44.5153 15.9501 42.36 14.2956 39.0778 12.9472C36.422 11.8561 33.5176 11.1668 31.5488 10.7806C30.3688 10.5492 29.1323 10.3426 27.8735 10.1666C27.3396 10.0912 26.8459 10.4643 26.771 10.9985C26.6963 11.5327 27.0688 12.0262 27.603 12.1009C28.8266 12.272 30.0277 12.4727 31.1729 12.6973C37.8809 14.0128 42.4619 16.2176 43.7412 18.7461C44.0099 19.2774 44.1406 19.8496 44.1406 20.4953C44.1406 23.7181 41.5186 26.34 38.2958 26.34C35.0372 26.34 31.8728 26.8726 28.6218 27.9682C27.2216 28.4401 25.8621 29.0043 24.5473 29.55C23.6777 29.9108 22.7785 30.2841 21.8859 30.6223C19.6334 31.476 17.907 31.8402 16.1133 31.8402C10.4592 31.8402 5.85923 27.2403 5.85923 21.5863C5.85923 15.9322 10.4592 11.3322 16.1133 11.3322C17.2164 11.3322 18.3362 11.3531 19.4415 11.3943C19.6291 11.4013 19.8168 11.4088 20.0047 11.4171C20.5431 11.4415 20.9997 11.0233 21.0234 10.4845C21.0472 9.9457 20.6296 9.48955 20.0909 9.46582C19.8985 9.45732 19.7061 9.44961 19.5141 9.44248C18.3847 9.40039 17.2405 9.3791 16.1132 9.3791C9.38218 9.3791 3.90601 14.8552 3.90601 21.5863C3.90601 28.3173 9.38208 33.7934 16.1132 33.7934C18.1577 33.7934 20.0911 33.3912 22.578 32.4486C23.499 32.0996 24.4125 31.7205 25.296 31.3538C26.5804 30.8208 27.9086 30.2695 29.2456 29.819C32.2922 28.7922 35.2526 28.2931 38.2958 28.2931C42.5956 28.2933 46.0937 24.7951 46.0937 20.4954C46.0937 19.5362 45.8942 18.6757 45.4839 17.8646Z" fill="white"/>
<path d="M17.0487 13.2637C14.3186 13.2637 12.0974 15.2778 12.0974 17.7536C12.0974 20.2294 14.3186 22.2436 17.0487 22.2436C19.7789 22.2436 22 20.2294 22 17.7536C22 15.2778 19.7789 13.2637 17.0487 13.2637ZM17.0487 20.2903C15.3955 20.2903 14.0505 19.1523 14.0505 17.7535C14.0505 16.3548 15.3955 15.2167 17.0487 15.2167C18.7019 15.2167 20.0468 16.3547 20.0468 17.7535C20.0468 19.1523 18.7019 20.2903 17.0487 20.2903Z" fill="white"/>
</svg>
