<svg width="60" height="60" viewBox="0 0 60 60" fill="none" xmlns="http://www.w3.org/2000/svg">
<path d="M54.8985 14.7291C52.1625 12.5486 48.3008 10.7633 43.4207 9.42316C34.035 6.84574 23.451 6.56754 19.3361 6.56754C8.6741 6.56754 0 15.2418 0 25.9037V34.0963C0 44.7584 8.6741 53.4325 19.3361 53.4325C24.2524 53.4325 27.9446 51.8924 31.8537 50.2618C35.8962 48.5756 40.0761 46.8321 45.955 46.8321C53.6994 46.8321 60 40.5314 60 32.7871V24.5945C60 20.7462 58.2836 17.427 54.8985 14.7291ZM53.9116 34.7627C54.3553 35.2342 55.097 35.2563 55.5682 34.8128C56.363 34.0644 57.0621 33.2306 57.6562 32.3329V32.7871C57.6562 39.2393 52.4071 44.4884 45.955 44.4884C39.6069 44.4884 35.2068 46.3237 30.9514 48.0987C27.2651 49.6363 23.7832 51.0887 19.3361 51.0887C10.3337 51.0887 2.94516 44.0513 2.37984 35.1889C5.67047 41.1741 12.0371 45.2397 19.3361 45.2397C24.2524 45.2397 27.9446 43.6996 31.8537 42.069C35.8962 40.3828 40.0761 38.6393 45.955 38.6393C46.3917 38.6393 46.8329 38.6187 47.2665 38.5781C47.9109 38.5178 48.3844 37.9465 48.324 37.3021C48.2637 36.6578 47.6917 36.1845 47.048 36.2447C46.6867 36.2784 46.3191 36.2957 45.955 36.2957C39.6069 36.2957 35.2068 38.1311 30.9514 39.906C27.2651 41.4436 23.7832 42.896 19.3361 42.896C9.96645 42.896 2.34375 35.2733 2.34375 25.9038C2.34375 16.5342 9.96645 8.91141 19.3361 8.91141C23.3559 8.91141 33.6893 9.18152 42.8 11.6834C52.6579 14.3905 57.6562 18.7344 57.6562 24.5945C57.6562 27.7931 56.3095 30.8955 53.9616 33.1062C53.4903 33.5498 53.468 34.2915 53.9116 34.7627Z" fill="white"/>
<path d="M52.9481 35.5107C52.6724 34.9252 51.9741 34.6738 51.3888 34.9494C51.3803 34.9533 51.3692 34.9588 51.3609 34.9629C50.7821 35.2523 50.5475 35.9563 50.8368 36.5351C51.0421 36.9457 51.456 37.1831 51.886 37.1831C52.0597 37.1831 52.2359 37.1443 52.4021 37.0627C52.9767 36.7822 53.2212 36.0912 52.9481 35.5107Z" fill="white"/>
<path d="M27.7953 11.5854L27.7349 11.5805C27.0887 11.5301 26.5249 12.0103 26.4735 12.6555C26.422 13.3007 26.9033 13.8654 27.5485 13.917L27.6083 13.9216C27.6401 13.9242 27.6716 13.9255 27.703 13.9255C28.3078 13.9255 28.8208 13.4603 28.87 12.847C28.9215 12.2018 28.4404 11.6371 27.7953 11.5854Z" fill="white"/>
<path d="M54.581 21.4375C53.4186 19.1401 50.8323 17.1547 46.8936 15.5366C43.7067 14.2273 40.2215 13.4002 37.8588 12.9367C36.4429 12.6591 34.959 12.4111 33.4485 12.1999C32.8078 12.1095 32.2153 12.5571 32.1256 13.1982C32.0359 13.8393 32.4829 14.4314 33.1239 14.5211C34.5922 14.7264 36.0335 14.9672 37.4078 15.2367C45.4574 16.8154 50.9545 19.4611 52.4897 22.4953C52.8122 23.1329 52.969 23.8195 52.969 24.5944C52.969 28.4617 49.8226 31.6081 45.9552 31.6081C42.0449 31.6081 38.2477 32.2471 34.3465 33.5618C32.6663 34.1282 31.0348 34.8052 29.4571 35.46C28.4135 35.893 27.3345 36.3409 26.2634 36.7467C23.5604 37.7712 21.4887 38.2083 19.3363 38.2083C12.5514 38.2083 7.03137 32.6884 7.03137 25.9036C7.03137 19.1187 12.5514 13.5987 19.3363 13.5987C20.6599 13.5987 22.0037 13.6238 23.33 13.6732C23.5552 13.6815 23.7805 13.6905 24.006 13.7005C24.652 13.7298 25.1999 13.228 25.2284 12.5814C25.257 11.9348 24.7559 11.3875 24.1093 11.359C23.8785 11.3488 23.6476 11.3395 23.4172 11.331C22.062 11.2805 20.6889 11.2549 19.3362 11.2549C11.2589 11.2549 4.6875 17.8262 4.6875 25.9036C4.6875 33.9808 11.2588 40.552 19.3362 40.552C21.7895 40.552 24.1096 40.0695 27.0939 38.9384C28.1991 38.5195 29.2952 38.0646 30.3554 37.6246C31.8968 36.985 33.4907 36.3235 35.095 35.7827C38.751 34.5506 42.3034 33.9517 45.9552 33.9517C51.115 33.9519 55.3127 29.7541 55.3127 24.5945C55.3127 23.4435 55.0733 22.4108 54.581 21.4375Z" fill="white"/>
<path d="M20.4581 15.9164C17.182 15.9164 14.5166 18.3334 14.5166 21.3043C14.5166 24.2753 17.182 26.6923 20.4581 26.6923C23.7343 26.6923 26.3996 24.2753 26.3996 21.3043C26.3996 18.3334 23.7343 15.9164 20.4581 15.9164ZM20.4581 24.3484C18.4743 24.3484 16.8604 22.9828 16.8604 21.3042C16.8604 19.6257 18.4743 18.26 20.4581 18.26C22.442 18.26 24.0559 19.6256 24.0559 21.3042C24.0559 22.9828 22.442 24.3484 20.4581 24.3484Z" fill="white"/>
</svg>
