<svg width="40" height="40" viewBox="0 0 40 40" fill="none" xmlns="http://www.w3.org/2000/svg">
<path d="M40 24.7006V10.3473L8 5.24204V3.47749C8 1.56002 6.23458 0 4.06453 0H0V2.35629H4.06444C4.76409 2.35629 5.33333 2.85928 5.33333 3.47749V25.2343C5.33333 27.746 7.64587 29.7894 10.4884 29.7894H11.5556V32.4746C11.0108 32.2636 10.4097 32.1457 9.77778 32.1457C7.32711 32.1457 5.33333 33.9074 5.33333 36.0728C5.33333 38.2383 7.32711 40 9.77778 40C12.0785 40 13.9763 38.4473 14.1999 36.4656H14.2222V29.7894H37.3333V32.4746C36.7885 32.2636 36.1875 32.1457 35.5556 32.1457C33.1049 32.1457 31.1111 33.9074 31.1111 36.0728C31.1111 38.2383 33.1049 40 35.5556 40C37.8563 40 39.754 38.4473 39.9777 36.4656H40V27.4331H10.4884C9.11627 27.4331 8 26.4468 8 25.2343V24.3078L40 24.7006ZM9.77778 37.6437C8.79751 37.6437 8 36.939 8 36.0728C8 35.2067 8.79751 34.502 9.77778 34.502C10.758 34.502 11.5556 35.2067 11.5556 36.0728C11.5556 36.939 10.758 37.6437 9.77778 37.6437ZM35.5556 37.6437C34.5753 37.6437 33.7778 36.939 33.7778 36.0728C33.7778 35.2067 34.5753 34.502 35.5556 34.502C36.5358 34.502 37.3333 35.2067 37.3333 36.0728C37.3333 36.939 36.5358 37.6437 35.5556 37.6437ZM21.3333 22.115L16 22.0495V8.91275L21.3333 9.76361V22.115ZM24 10.1891L28.8889 10.9691V22.2077L24 22.1477V10.1891ZM13.3333 22.0168L8 21.9514V7.63642L13.3333 8.48728V22.0168ZM37.3333 22.3113L31.5556 22.2404V11.3945L37.3333 12.3163V22.3113Z" fill="white"/>
</svg>
