<svg width="54" height="60" viewBox="0 0 54 60" fill="none" xmlns="http://www.w3.org/2000/svg">
<path d="M53.5082 37.0509V15.521L11.095 7.86306V5.21624C11.095 2.34004 8.75509 3.8147e-06 5.87889 3.8147e-06H0.491699V3.53444H5.87877C6.80609 3.53444 7.56057 4.28892 7.56057 5.21624V37.8515C7.56057 41.619 10.6256 44.6841 14.3932 44.6841H15.8076V48.7118C15.0855 48.3954 14.2888 48.2185 13.4513 48.2185C10.2032 48.2185 7.56057 50.8611 7.56057 54.1093C7.56057 57.3574 10.2032 60 13.4513 60C16.5007 60 19.016 57.6709 19.3125 54.6983H19.342V44.6841H49.9738V48.7118C49.2517 48.3954 48.4551 48.2185 47.6175 48.2185C44.3694 48.2185 41.7268 50.8611 41.7268 54.1093C41.7268 57.3574 44.3694 60 47.6175 60C50.6669 60 53.1822 57.6709 53.4787 54.6983H53.5082V41.1497H14.3932C12.5745 41.1497 11.095 39.6702 11.095 37.8515V36.4617L53.5082 37.0509ZM13.4513 56.4656C12.152 56.4656 11.095 55.4085 11.095 54.1093C11.095 52.81 12.152 51.753 13.4513 51.753C14.7506 51.753 15.8076 52.81 15.8076 54.1093C15.8076 55.4085 14.7506 56.4656 13.4513 56.4656ZM47.6175 56.4656C46.3183 56.4656 45.2612 55.4085 45.2612 54.1093C45.2612 52.81 46.3183 51.753 47.6175 51.753C48.9168 51.753 49.9738 52.81 49.9738 54.1093C49.9738 55.4085 48.9168 56.4656 47.6175 56.4656ZM28.7672 33.1725L21.6983 33.0743V13.3691L28.7672 14.6454V33.1725ZM32.3016 15.2836L38.7814 16.4536V33.3116L32.3016 33.2216V15.2836ZM18.1639 33.0252L11.095 32.927V11.4546L18.1639 12.7309V33.0252ZM49.9738 33.467L42.3159 33.3606V17.0917L49.9738 18.4744V33.467Z" fill="white"/>
</svg>
