<svg width="30" height="30" viewBox="0 0 30 30" fill="none" xmlns="http://www.w3.org/2000/svg">
<g clip-path="url(#clip0)">
<path d="M28.2541 18.5255V7.76051L7.04747 3.93154V2.60813C7.04747 1.17003 5.87752 9.53674e-06 4.43941 9.53674e-06H1.74582V1.76723H4.43935C4.90301 1.76723 5.28025 2.14447 5.28025 2.60813V18.9257C5.28025 20.8095 6.81279 22.3421 8.69658 22.3421H9.40376V24.3559C9.04272 24.1977 8.64439 24.1093 8.22562 24.1093C6.60154 24.1093 5.28025 25.4306 5.28025 27.0546C5.28025 28.6787 6.60154 30 8.22562 30C9.75031 30 11.008 28.8355 11.1562 27.3492H11.171V22.3421H26.4869V24.3559C26.1258 24.1977 25.7275 24.1093 25.3087 24.1093C23.6847 24.1093 22.3634 25.4306 22.3634 27.0546C22.3634 28.6787 23.6847 30 25.3087 30C26.8334 30 28.0911 28.8355 28.2393 27.3492H28.2541V20.5748H8.69658C7.78723 20.5748 7.04747 19.8351 7.04747 18.9257V18.2309L28.2541 18.5255ZM8.22562 28.2328C7.57599 28.2328 7.04747 27.7043 7.04747 27.0546C7.04747 26.405 7.57599 25.8765 8.22562 25.8765C8.87525 25.8765 9.40376 26.405 9.40376 27.0546C9.40376 27.7043 8.87525 28.2328 8.22562 28.2328ZM25.3087 28.2328C24.6591 28.2328 24.1306 27.7043 24.1306 27.0546C24.1306 26.405 24.6591 25.8765 25.3087 25.8765C25.9584 25.8765 26.4869 26.405 26.4869 27.0546C26.4869 27.7043 25.9584 28.2328 25.3087 28.2328ZM15.8836 16.5862L12.3491 16.5372V6.68457L15.8836 7.32271V16.5862ZM17.6508 7.64181L20.8907 8.22682V16.6558L17.6508 16.6108V7.64181ZM10.5819 16.5126L7.04747 16.4635V5.72733L10.5819 6.36547V16.5126ZM26.4869 16.7335L22.6579 16.6803V8.54586L26.4869 9.2372V16.7335Z" fill="white"/>
</g>
<defs>
<clipPath id="clip0">
<rect width="30" height="30" fill="white"/>
</clipPath>
</defs>
</svg>
