<svg width="50" height="50" viewBox="0 0 50 50" fill="none" xmlns="http://www.w3.org/2000/svg">
<path d="M50 30.8758V12.9342L10 6.55255V4.34687C10 1.95003 7.79322 0 5.08067 0H0V2.94536H5.08056C5.95511 2.94536 6.66667 3.5741 6.66667 4.34687V31.5429C6.66667 34.6825 9.55733 37.2368 13.1106 37.2368H14.4444V40.5932C13.7634 40.3295 13.0121 40.1821 12.2222 40.1821C9.15889 40.1821 6.66667 42.3843 6.66667 45.0911C6.66667 47.7978 9.15889 50 12.2222 50C15.0981 50 17.4703 48.0591 17.7499 45.582H17.7778V37.2368H46.6667V40.5932C45.9857 40.3295 45.2343 40.1821 44.4444 40.1821C41.3811 40.1821 38.8889 42.3843 38.8889 45.0911C38.8889 47.7978 41.3811 50 44.4444 50C47.3203 50 49.6926 48.0591 49.9721 45.582H50V34.2914H13.1106C11.3953 34.2914 10 33.0585 10 31.5429V30.3848L50 30.8758ZM12.2222 47.0546C10.9969 47.0546 10 46.1738 10 45.0911C10 44.0083 10.9969 43.1275 12.2222 43.1275C13.4476 43.1275 14.4444 44.0083 14.4444 45.0911C14.4444 46.1738 13.4476 47.0546 12.2222 47.0546ZM44.4444 47.0546C43.2191 47.0546 42.2222 46.1738 42.2222 45.0911C42.2222 44.0083 43.2191 43.1275 44.4444 43.1275C45.6698 43.1275 46.6667 44.0083 46.6667 45.0911C46.6667 46.1738 45.6698 47.0546 44.4444 47.0546ZM26.6667 27.6437L20 27.5619V11.1409L26.6667 12.2045V27.6437ZM30 12.7363L36.1111 13.7114V27.7597L30 27.6846V12.7363ZM16.6667 27.521L10 27.4392V9.54553L16.6667 10.6091V27.521ZM46.6667 27.8892L39.4444 27.8005V14.2431L46.6667 15.3953V27.8892Z" fill="white"/>
</svg>
