<svg width="1035" height="419" fill="none" xmlns="http://www.w3.org/2000/svg"><g style="mix-blend-mode:overlay"><path d="M643.031 111.387c.751-7.963 5.682-15.416 12.734-19.255 7.052-3.838 15.904-4.523 23.052-.858 1.726-5.651 7.628-9.428 13.252-7.543 2.618-8.603 9.366-15.865 17.789-19.125 8.423-3.261 17.67-2.296 25.444 2.29.073-4.215 2.387-8.329 5.963-10.59 3.577-2.262 9.569-4.142 13.439-2.425-.051-11.925 6.86-23.638 17.348-29.407 10.494-5.775 24.119-5.797 34.246.578 3.069-8.384 13.089-12.835 21.483-9.692 4.706-7.829 18.833-16.937 40.175-14.925 21.343 2.011 92.243 47.14 55.289 112.282h-47.954l-232.26-1.33z" fill="url(#paint0_linear_3_1009)"/><path d="M449.823 406.527c-1.161-12.383-8.791-23.971-19.703-29.939-10.912-5.969-24.609-7.033-35.67-1.335-2.671-8.787-11.803-14.66-20.507-11.728-4.05-13.377-14.491-24.668-27.525-29.738-13.033-5.07-27.341-3.569-39.371 3.56-.114-6.553-3.693-12.949-9.228-16.466-5.534-3.517-14.805-6.44-20.794-3.77.079-18.542-10.615-36.754-26.844-45.724-16.238-8.979-37.32-9.014-52.99.899-4.749-13.037-20.253-19.957-33.243-15.07-7.281-12.173-29.14-26.335-62.165-23.207-33.025 3.127-142.733 73.298-85.553 174.586h74.204l359.389-2.068z" fill="url(#paint1_linear_3_1009)"/><path d="M1032.76 227.094c0-79.473-51.947-154.516-93.413-154.516-41.467 0-58.77 24.76-61.546 42.553-3.736-1.528-8.171-1.196-11.636.872-3.466 2.068-4.723 4.538-5.16 8.552-15.591-4.451-33.453.27-44.801 11.841-11.358 11.57-18.35 28.769-13.593 44.267-13.557-3.779-28.904-.402-39.624 8.726-10.721 9.118-16.508 23.717-14.946 37.705h284.719z" fill="url(#paint2_linear_3_1009)"/><path d="M775.835 256.293c4.026-25.869 33.451-66.787 70.272-66.787 20.583 0 55.181 11.305 101.098 61.255 19.155-6.392 44.341 7.102 51.435 15.98 8.08 10.116 12.06 27.997 0 42.612C1022.7 343.446 1035 374.871 1035 419H587.527c-2.271-20.312 6.136-41.529 21.691-54.792 15.555-13.263 37.815-18.164 57.502-12.677-6.899-22.531 3.246-47.53 19.723-64.344 16.477-16.815 42.39-23.668 65.022-17.205.621-5.824 2.465-9.428 7.485-12.429 5.019-3 11.475-3.48 16.885-1.26z" fill="url(#paint3_linear_3_1009)"/><path d="M55.951 228.839c0-79.473 51.943-154.516 93.409-154.516 41.467 0 58.769 24.76 61.545 42.553 3.737-1.527 8.171-1.196 11.637.872 3.466 2.068 4.723 4.538 5.159 8.552 15.592-4.45 33.453.27 44.802 11.841 11.358 11.571 18.35 28.77 13.592 44.267 13.558-3.778 28.905-.401 39.625 8.726 10.72 9.119 16.508 23.717 14.945 37.705H55.951z" fill="url(#paint4_linear_3_1009)"/><path d="M233.271 53.481c-1.981-12.714-16.464-32.823-34.587-32.823-10.132 0-27.16 5.556-49.76 30.105-9.429-3.142-21.825 3.49-25.317 7.853-3.979 4.972-5.936 13.76 0 20.942-11.841 16.756-17.896 32.201-17.896 53.888h220.245c1.117-9.982-3.021-20.41-10.677-26.928-7.656-6.518-18.612-8.927-28.302-6.23 3.396-11.074-1.598-23.36-9.708-31.623-8.11-8.264-20.864-11.632-32.003-8.456-.306-2.862-1.214-4.634-3.684-6.108-2.471-1.475-5.648-1.71-8.311-.62z" fill="url(#paint5_linear_3_1009)"/></g><defs><linearGradient id="paint0_linear_3_1009" x1="744.529" y1="10.747" x2="769.916" y2="86.226" gradientUnits="userSpaceOnUse"><stop stop-color="#F2FFFF"/><stop offset="1" stop-color="#93FFFD" stop-opacity="0"/></linearGradient><linearGradient id="paint1_linear_3_1009" x1="292.77" y1="250.043" x2="253.143" y2="367.288" gradientUnits="userSpaceOnUse"><stop stop-color="#F2FFFF"/><stop offset="1" stop-color="#93FFFD" stop-opacity="0"/></linearGradient><linearGradient id="paint2_linear_3_1009" x1="832.396" y1="76.025" x2="867.897" y2="194.724" gradientUnits="userSpaceOnUse"><stop stop-color="#F2FFFF"/><stop offset="1" stop-color="#93FFFD" stop-opacity="0"/></linearGradient><linearGradient id="paint3_linear_3_1009" x1="709.951" y1="199.458" x2="761.612" y2="371.929" gradientUnits="userSpaceOnUse"><stop stop-color="#F2FFFF"/><stop offset="1" stop-color="#93FFFD" stop-opacity="0"/></linearGradient><linearGradient id="paint4_linear_3_1009" x1="256.311" y1="77.77" x2="220.809" y2="196.469" gradientUnits="userSpaceOnUse"><stop stop-color="#F2FFFF"/><stop offset="1" stop-color="#93FFFD" stop-opacity="0"/></linearGradient><linearGradient id="paint5_linear_3_1009" x1="265.699" y1="25.549" x2="240.341" y2="110.333" gradientUnits="userSpaceOnUse"><stop stop-color="#F2FFFF"/><stop offset="1" stop-color="#93FFFD" stop-opacity="0"/></linearGradient></defs></svg>