<svg width="375" height="425" fill="none" xmlns="http://www.w3.org/2000/svg"><g style="mix-blend-mode:overlay"><path d="M216.332 354.098c-.672-7.166-5.087-13.872-11.403-17.327-6.315-3.454-14.242-4.07-20.644-.772-1.546-5.086-6.83-8.485-11.867-6.788-2.345-7.742-8.387-14.276-15.93-17.211-7.544-2.934-15.824-2.065-22.786 2.061-.066-3.793-2.138-7.494-5.341-9.53-3.203-2.035-8.569-3.727-12.034-2.181.045-10.732-6.144-21.271-15.536-26.463-9.398-5.197-21.6-5.217-30.668.52-2.749-7.545-11.721-11.549-19.24-8.721-4.213-7.045-16.864-15.242-35.977-13.431-19.113 1.81-82.606 42.421-49.513 101.04H8.338l207.994-1.197z" fill="url(#paint0_linear_22_1003)"/><path d="M414.923 180.425c0-45.994-30.062-89.425-54.06-89.425-23.999 0-34.012 14.33-35.619 24.627-2.163-.884-4.729-.692-6.735.505-2.006 1.197-2.733 2.626-2.986 4.949-9.023-2.575-19.36.157-25.928 6.853-6.574 6.697-10.62 16.651-7.867 25.62-7.846-2.187-16.728-.233-22.932 5.05-6.205 5.277-9.554 13.726-8.65 21.821h164.777z" fill="url(#paint1_linear_22_1003)"/><path d="M-24 198.425C-24 152.431 6.061 109 30.06 109c23.999 0 34.012 14.33 35.619 24.627 2.162-.884 4.729-.692 6.735.505 2.005 1.197 2.733 2.626 2.986 4.949 9.023-2.575 19.36.157 25.928 6.853 6.573 6.697 10.62 16.651 7.867 25.62 7.846-2.187 16.728-.233 22.932 5.05 6.204 5.277 9.554 13.726 8.65 21.821H-24z" fill="url(#paint2_linear_22_1003)"/><path d="M93.825 51.996C92.678 44.638 84.296 33 73.807 33c-5.863 0-15.718 3.215-28.798 17.423-5.456-1.818-12.63 2.02-14.652 4.545-2.303 2.877-3.435 7.963 0 12.12C23.504 76.786 20 85.724 20 98.276h127.465c.647-5.778-1.748-11.813-6.179-15.585-4.431-3.773-10.771-5.166-16.379-3.606 1.965-6.408-.925-13.519-5.619-18.301-4.693-4.783-12.075-6.732-18.521-4.894-.177-1.657-.703-2.682-2.132-3.535a5.487 5.487 0 00-4.81-.359z" fill="url(#paint3_linear_22_1003)"/><path d="M313.194 330.652c2.33-14.971 19.36-38.652 40.67-38.652 11.912 0 31.936 6.543 58.509 35.451 11.087-3.699 25.663 4.11 29.769 9.248 4.678 5.855 6.979 16.203 0 24.661 13.923 19.732 21.043 37.919 21.043 63.458H204.212c-1.314-11.755 3.552-24.035 12.554-31.71 9.002-7.676 21.885-10.512 33.279-7.337-3.993-13.04 1.878-27.508 11.414-37.239 9.536-9.731 24.533-13.697 37.631-9.957.36-3.371 1.427-5.456 4.332-7.193 2.905-1.737 6.641-2.014 9.772-.73z" fill="url(#paint4_linear_22_1003)"/><path d="M231 64.377c.434-4.609 3.288-8.922 7.369-11.144 4.082-2.221 9.205-2.618 13.342-.497.999-3.27 4.414-5.456 7.669-4.365 1.515-4.979 5.421-9.182 10.295-11.069 4.875-1.887 10.227-1.328 14.726 1.325.043-2.439 1.381-4.82 3.451-6.129 2.07-1.308 5.538-2.396 7.778-1.403-.03-6.901 3.97-13.68 10.04-17.019 6.073-3.342 13.958-3.355 19.819.335 1.777-4.852 7.575-7.428 12.434-5.61C340.646 4.272 348.822-1 361.174.165c12.352 1.164 53.385 27.282 31.998 64.983h-27.753L231 64.377z" fill="url(#paint5_linear_22_1003)"/></g><defs><linearGradient id="paint0_linear_22_1003" x1="125.439" y1="263.534" x2="102.505" y2="331.389" gradientUnits="userSpaceOnUse"><stop stop-color="#F2FFFF"/><stop offset="1" stop-color="#93FFFD" stop-opacity="0"/></linearGradient><linearGradient id="paint1_linear_22_1003" x1="298.966" y1="92.995" x2="319.512" y2="161.692" gradientUnits="userSpaceOnUse"><stop stop-color="#F2FFFF"/><stop offset="1" stop-color="#93FFFD" stop-opacity="0"/></linearGradient><linearGradient id="paint2_linear_22_1003" x1="91.957" y1="110.995" x2="71.411" y2="179.692" gradientUnits="userSpaceOnUse"><stop stop-color="#F2FFFF"/><stop offset="1" stop-color="#93FFFD" stop-opacity="0"/></linearGradient><linearGradient id="paint3_linear_22_1003" x1="112.592" y1="35.831" x2="97.916" y2="84.899" gradientUnits="userSpaceOnUse"><stop stop-color="#F2FFFF"/><stop offset="1" stop-color="#93FFFD" stop-opacity="0"/></linearGradient><linearGradient id="paint4_linear_22_1003" x1="275.064" y1="297.76" x2="304.963" y2="397.576" gradientUnits="userSpaceOnUse"><stop stop-color="#F2FFFF"/><stop offset="1" stop-color="#93FFFD" stop-opacity="0"/></linearGradient><linearGradient id="paint5_linear_22_1003" x1="289.741" y1="6.132" x2="304.434" y2="49.815" gradientUnits="userSpaceOnUse"><stop stop-color="#F2FFFF"/><stop offset="1" stop-color="#93FFFD" stop-opacity="0"/></linearGradient></defs></svg>