<svg width="362" height="26" fill="none" xmlns="http://www.w3.org/2000/svg"><path d="M.025 12.295c0-1.385.277-2.598.831-3.64.57-1.06 1.353-1.874 2.347-2.444.994-.57 2.135-.855 3.422-.855 1.63 0 2.974.39 4.033 1.173 1.076.765 1.8 1.865 2.176 3.298H9.827c-.244-.668-.636-1.189-1.173-1.563-.538-.375-1.214-.562-2.03-.562-1.14 0-2.052.407-2.737 1.221-.668.798-1.002 1.922-1.002 3.372s.334 2.582 1.002 3.396c.685.815 1.597 1.222 2.738 1.222 1.613 0 2.68-.709 3.202-2.126h3.007c-.392 1.368-1.125 2.46-2.2 3.274-1.076.798-2.412 1.197-4.01 1.197-1.286 0-2.427-.285-3.421-.855A6.27 6.27 0 01.856 15.96c-.554-1.059-.83-2.28-.83-3.665zm21.428 6.963c-1.271 0-2.42-.285-3.447-.855a6.34 6.34 0 01-2.42-2.443c-.587-1.059-.88-2.28-.88-3.665 0-1.368.302-2.582.905-3.64a6.246 6.246 0 012.468-2.444c1.043-.57 2.208-.855 3.496-.855 1.287 0 2.452.285 3.495.855a6.245 6.245 0 012.469 2.443c.603 1.06.904 2.273.904 3.64 0 1.37-.31 2.583-.928 3.641a6.493 6.493 0 01-2.543 2.468c-1.059.57-2.232.855-3.52.855zm0-2.419a4.08 4.08 0 002.004-.513c.635-.342 1.149-.855 1.54-1.539.39-.684.587-1.515.587-2.492 0-.977-.188-1.8-.563-2.468-.375-.684-.872-1.197-1.49-1.539a4.079 4.079 0 00-2.005-.513c-.717 0-1.385.17-2.005.513-.602.342-1.083.855-1.442 1.54-.358.667-.537 1.49-.537 2.467 0 1.45.366 2.573 1.1 3.372.75.781 1.686 1.172 2.81 1.172zm16.54-11.483c1.06 0 2.005.22 2.836.66a4.675 4.675 0 011.98 1.954c.472.864.709 1.906.709 3.128v7.94h-2.763v-7.525c0-1.205-.301-2.126-.904-2.76-.603-.652-1.426-.978-2.469-.978s-1.874.326-2.493.977c-.603.635-.904 1.556-.904 2.761v7.525h-2.787V5.576h2.787v1.54A4.633 4.633 0 0135.72 5.82a5.675 5.675 0 012.273-.464zm15.874 0c1.06 0 2.005.22 2.836.66a4.674 4.674 0 011.98 1.954c.472.864.709 1.906.709 3.128v7.94h-2.763v-7.525c0-1.205-.301-2.126-.904-2.76-.603-.652-1.426-.978-2.469-.978s-1.874.326-2.493.977c-.603.635-.904 1.556-.904 2.761v7.525h-2.787V5.576h2.786v1.54a4.633 4.633 0 011.736-1.296 5.676 5.676 0 012.273-.464zm21.423 6.621c0 .505-.033.961-.098 1.368h-10.29c.08 1.076.48 1.939 1.197 2.59.717.652 1.597.978 2.64.978 1.5 0 2.558-.627 3.178-1.882h3.006c-.407 1.238-1.149 2.256-2.224 3.054-1.06.782-2.38 1.173-3.96 1.173-1.287 0-2.444-.285-3.471-.855a6.392 6.392 0 01-2.395-2.443c-.57-1.059-.856-2.28-.856-3.665 0-1.385.277-2.598.831-3.64.57-1.06 1.36-1.874 2.371-2.444 1.027-.57 2.2-.855 3.52-.855 1.271 0 2.404.277 3.398.83a5.85 5.85 0 012.322 2.346c.554.994.83 2.142.83 3.445zm-2.909-.88c-.016-1.025-.383-1.848-1.1-2.467-.717-.619-1.605-.928-2.664-.928-.962 0-1.785.309-2.469.928-.684.603-1.092 1.425-1.222 2.468h7.455zm4.722 1.198c0-1.385.277-2.598.831-3.64.57-1.06 1.353-1.874 2.347-2.444.994-.57 2.135-.855 3.422-.855 1.63 0 2.974.39 4.033 1.173 1.076.765 1.8 1.865 2.176 3.298h-3.007c-.244-.668-.635-1.189-1.173-1.563-.538-.375-1.214-.562-2.029-.562-1.14 0-2.053.407-2.738 1.221-.668.798-1.002 1.922-1.002 3.372s.334 2.582 1.002 3.396c.685.815 1.597 1.222 2.738 1.222 1.613 0 2.68-.709 3.202-2.126h3.007c-.391 1.368-1.125 2.46-2.2 3.274-1.076.798-2.412 1.197-4.009 1.197-1.287 0-2.428-.285-3.422-.855a6.27 6.27 0 01-2.347-2.443c-.554-1.059-.83-2.28-.83-3.665zM95.94 7.848V15.3c0 .505.114.872.342 1.1.244.211.652.317 1.222.317h1.711v2.321h-2.2c-1.255 0-2.216-.293-2.884-.88-.668-.586-1.002-1.539-1.002-2.858V7.848h-1.59V5.576h1.59V2.229h2.81v3.347h3.276v2.272H95.94zm30.281-2.272l-4.18 13.462h-2.933l-2.713-9.944-2.713 9.944h-2.934l-4.204-13.462h2.836l2.811 10.824 2.859-10.824h2.909l2.738 10.775 2.786-10.775h2.738zm3.5-1.784c-.505 0-.928-.17-1.271-.513a1.726 1.726 0 01-.513-1.27c0-.505.171-.929.513-1.27a1.728 1.728 0 011.271-.514c.489 0 .905.171 1.247.513.342.342.513.766.513 1.27 0 .506-.171.93-.513 1.271a1.698 1.698 0 01-1.247.513zm1.369 1.784v13.462h-2.786V5.576h2.786zM138 7.848V15.3c0 .505.114.872.342 1.1.244.211.652.317 1.222.317h1.711v2.321h-2.2c-1.255 0-2.216-.293-2.884-.88-.668-.586-1.002-1.539-1.002-2.858V7.848H133.6V5.576h1.589V2.229H138v3.347h3.275v2.272H138zm12.81-2.492c1.026 0 1.939.22 2.737.66.815.44 1.451 1.091 1.907 1.954.473.864.709 1.906.709 3.128v7.94h-2.762v-7.525c0-1.205-.302-2.126-.905-2.76-.603-.652-1.425-.978-2.468-.978s-1.874.326-2.494.977c-.603.635-.904 1.556-.904 2.761v7.525h-2.787V.958h2.787V7.14a4.693 4.693 0 011.784-1.32 6.102 6.102 0 012.396-.464zm18.508 2.492V15.3c0 .505.114.872.342 1.1.245.211.652.317 1.222.317h1.711v2.321h-2.2c-1.254 0-2.216-.293-2.884-.88-.668-.586-1.002-1.539-1.002-2.858V7.848h-1.589V5.576h1.589V2.229h2.811v3.347h3.275v2.272h-3.275zm12.81-2.492c1.027 0 1.939.22 2.738.66.814.44 1.45 1.091 1.906 1.954.473.864.709 1.906.709 3.128v7.94h-2.762v-7.525c0-1.205-.301-2.126-.904-2.76-.603-.652-1.426-.978-2.469-.978s-1.874.326-2.493.977c-.603.635-.905 1.556-.905 2.761v7.525h-2.786V.958h2.786V7.14a4.697 4.697 0 011.785-1.32 6.093 6.093 0 012.395-.464zm21.252 6.621c0 .505-.033.961-.098 1.368h-10.291c.082 1.076.481 1.939 1.198 2.59.717.652 1.597.978 2.64.978 1.499 0 2.558-.627 3.177-1.882h3.007c-.408 1.238-1.149 2.256-2.224 3.054-1.06.782-2.38 1.173-3.96 1.173-1.288 0-2.445-.285-3.471-.855a6.391 6.391 0 01-2.396-2.443c-.57-1.059-.855-2.28-.855-3.665 0-1.385.277-2.598.831-3.64.57-1.06 1.36-1.874 2.371-2.444 1.026-.57 2.2-.855 3.52-.855 1.271 0 2.403.277 3.397.83a5.85 5.85 0 012.322 2.346c.554.994.832 2.142.832 3.445zm-2.909-.88c-.017-1.025-.383-1.848-1.1-2.467-.717-.619-1.605-.928-2.665-.928-.961 0-1.784.309-2.468.928-.685.603-1.092 1.425-1.223 2.468h7.456zm11.072 1.149c0-1.352.277-2.55.831-3.592.57-1.042 1.336-1.848 2.297-2.418.978-.587 2.062-.88 3.251-.88.88 0 1.744.195 2.591.586.864.375 1.548.88 2.054 1.515V.958h2.811v18.08h-2.811v-2.027c-.457.651-1.092 1.189-1.907 1.612-.799.424-1.719.635-2.762.635a6.159 6.159 0 01-3.227-.88c-.961-.602-1.727-1.433-2.297-2.491-.554-1.075-.831-2.289-.831-3.64zm11.024.049c0-.928-.196-1.735-.587-2.419-.375-.684-.872-1.205-1.491-1.564a3.936 3.936 0 00-2.005-.537c-.717 0-1.385.179-2.004.537-.619.342-1.124.856-1.515 1.54-.375.668-.563 1.466-.563 2.394 0 .928.188 1.743.563 2.443.391.7.896 1.238 1.515 1.613a4.023 4.023 0 002.004.537c.717 0 1.386-.179 2.005-.537.619-.358 1.116-.88 1.491-1.564.391-.7.587-1.515.587-2.443zm7.888-8.503c-.505 0-.929-.17-1.271-.513a1.726 1.726 0 01-.513-1.27c0-.505.171-.929.513-1.27a1.726 1.726 0 011.271-.514c.489 0 .905.171 1.247.513.342.342.513.766.513 1.27 0 .506-.171.93-.513 1.271a1.698 1.698 0 01-1.247.513zm1.369 1.784v13.462h-2.786V5.576h2.786zm9.085-.22c1.043 0 1.964.212 2.762.635.815.407 1.45.92 1.907 1.54V5.576h2.811v13.682c0 1.238-.261 2.338-.782 3.299a5.616 5.616 0 01-2.274 2.296c-.977.554-2.151.831-3.52.831-1.825 0-3.34-.431-4.546-1.295-1.206-.847-1.89-2.003-2.053-3.47h2.762c.212.701.66 1.263 1.344 1.687.701.44 1.532.66 2.493.66 1.125 0 2.029-.343 2.714-1.027.7-.684 1.051-1.678 1.051-2.98V17.01c-.473.635-1.116 1.172-1.931 1.612-.799.424-1.711.635-2.738.635a6.153 6.153 0 01-3.226-.88c-.962-.602-1.728-1.433-2.298-2.491-.554-1.075-.831-2.289-.831-3.64 0-1.353.277-2.55.831-3.593.57-1.042 1.336-1.848 2.298-2.418a6.153 6.153 0 013.226-.88zm4.669 6.939c0-.928-.196-1.735-.587-2.419-.375-.684-.872-1.205-1.491-1.564a3.932 3.932 0 00-2.004-.537c-.717 0-1.385.179-2.005.537-.619.342-1.124.856-1.515 1.54-.375.668-.562 1.466-.562 2.394 0 .928.187 1.743.562 2.443.391.7.896 1.238 1.515 1.613a4.024 4.024 0 002.005.537c.717 0 1.385-.179 2.004-.537.619-.358 1.116-.88 1.491-1.564.391-.7.587-1.515.587-2.443zm7.889-8.503c-.506 0-.929-.17-1.272-.513a1.726 1.726 0 01-.513-1.27c0-.505.171-.929.513-1.27a1.729 1.729 0 011.272-.514c.488 0 .904.171 1.246.513.342.342.513.766.513 1.27 0 .506-.171.93-.513 1.271a1.697 1.697 0 01-1.246.513zm1.368 1.784v13.462h-2.786V5.576h2.786zm6.91 2.272V15.3c0 .505.114.872.342 1.1.245.211.652.317 1.222.317h1.711v2.321h-2.2c-1.254 0-2.216-.293-2.884-.88-.668-.586-1.002-1.539-1.002-2.858V7.848h-1.589V5.576h1.589V2.229h2.811v3.347h3.275v2.272h-3.275zm4.915 4.398c0-1.352.277-2.55.831-3.592.57-1.042 1.336-1.848 2.297-2.418a6.159 6.159 0 013.227-.88c1.059 0 1.98.212 2.762.635.799.407 1.434.92 1.907 1.54V5.576h2.811v13.462h-2.811v-2.003c-.473.635-1.117 1.165-1.931 1.588-.815.424-1.744.635-2.787.635a5.988 5.988 0 01-3.178-.88c-.961-.602-1.727-1.433-2.297-2.491-.554-1.075-.831-2.289-.831-3.64zm11.024.049c0-.928-.196-1.735-.587-2.419-.375-.684-.872-1.205-1.491-1.564a3.932 3.932 0 00-2.004-.537c-.717 0-1.385.179-2.005.537-.619.342-1.124.856-1.515 1.54-.375.668-.562 1.466-.562 2.394 0 .928.187 1.743.562 2.443.391.7.896 1.238 1.515 1.613a4.024 4.024 0 002.005.537c.717 0 1.385-.179 2.004-.537.619-.358 1.116-.88 1.491-1.564.391-.7.587-1.515.587-2.443zM286.941.958v18.08h-2.786V.958h2.786zm28.097 4.618l-4.18 13.462h-2.933l-2.714-9.944-2.713 9.944h-2.933l-4.204-13.462h2.835l2.811 10.824 2.86-10.824h2.909l2.737 10.775L312.3 5.576h2.738zm7.924 13.682c-1.271 0-2.42-.285-3.446-.855a6.334 6.334 0 01-2.42-2.443c-.587-1.059-.88-2.28-.88-3.665 0-1.368.301-2.582.904-3.64a6.246 6.246 0 012.469-2.444c1.043-.57 2.208-.855 3.495-.855 1.288 0 2.453.285 3.496.855a6.237 6.237 0 012.468 2.443c.603 1.06.905 2.273.905 3.64 0 1.37-.31 2.583-.929 3.641a6.495 6.495 0 01-2.542 2.468c-1.059.57-2.233.855-3.52.855zm0-2.419c.717 0 1.385-.17 2.004-.513.636-.342 1.149-.855 1.54-1.539.391-.684.587-1.515.587-2.492 0-.977-.187-1.8-.562-2.468-.375-.684-.872-1.197-1.491-1.539a4.08 4.08 0 00-2.005-.513c-.717 0-1.385.17-2.004.513-.603.342-1.084.855-1.442 1.54-.359.667-.538 1.49-.538 2.467 0 1.45.367 2.573 1.1 3.372.75.781 1.687 1.172 2.811 1.172zm12.532-9.309a4.314 4.314 0 011.613-1.588c.685-.39 1.491-.586 2.42-.586v2.883h-.709c-1.091 0-1.922.277-2.493.83-.554.555-.831 1.516-.831 2.884v7.085h-2.786V5.576h2.786V7.53zm9.381-6.572v18.08h-2.786V.958h2.786zm2.73 11.288c0-1.352.277-2.55.831-3.592.57-1.042 1.336-1.848 2.298-2.418.977-.587 2.061-.88 3.251-.88.88 0 1.743.195 2.591.586.863.375 1.548.88 2.053 1.515V.958h2.811v18.08h-2.811v-2.027c-.456.651-1.092 1.189-1.907 1.612-.798.424-1.719.635-2.762.635a6.153 6.153 0 01-3.226-.88c-.962-.602-1.728-1.433-2.298-2.491-.554-1.075-.831-2.289-.831-3.64zm11.024.049c0-.928-.196-1.735-.587-2.419-.375-.684-.872-1.205-1.491-1.564a3.932 3.932 0 00-2.004-.537c-.717 0-1.385.179-2.005.537-.619.342-1.124.856-1.515 1.54-.375.668-.562 1.466-.562 2.394 0 .928.187 1.743.562 2.443.391.7.896 1.238 1.515 1.613a4.024 4.024 0 002.005.537c.717 0 1.385-.179 2.004-.537.619-.358 1.116-.88 1.491-1.564.391-.7.587-1.515.587-2.443z" fill="#fff"/></svg>