<svg width="549" height="90" fill="none" xmlns="http://www.w3.org/2000/svg"><path d="M48.976 89.829l-8.181-12.944c-2.424.57-4.787.855-7.09.855-6 0-11.513-1.64-16.543-4.92-4.97-3.281-8.938-7.845-11.908-13.694C2.346 53.207.891 46.574.891 39.23c0-7.346 1.455-13.943 4.363-19.791 2.97-5.848 6.939-10.413 11.908-13.693C22.192 2.464 27.706.824 33.705.824c6 0 11.483 1.64 16.452 4.92 5.03 3.281 8.969 7.846 11.817 13.694 2.909 5.848 4.363 12.445 4.363 19.79 0 6.42-1.121 12.303-3.363 17.652-2.182 5.277-5.242 9.663-9.18 13.158L67.79 89.83H48.976zm-32.178-50.6c0 6.632 1.515 11.945 4.545 15.94 3.09 3.922 7.211 5.883 12.362 5.883 5.09 0 9.15-1.997 12.18-5.99 3.09-3.994 4.636-9.272 4.636-15.833 0-6.633-1.545-11.91-4.636-15.833-3.03-3.994-7.09-5.99-12.18-5.99-5.15 0-9.271 1.96-12.362 5.883-3.03 3.922-4.545 9.236-4.545 15.94zM105.34 77.74c-6 0-11.514-1.64-16.544-4.92-4.969-3.281-8.938-7.845-11.907-13.694-2.909-5.919-4.363-12.552-4.363-19.897 0-7.346 1.454-13.943 4.363-19.791 2.97-5.848 6.938-10.413 11.907-13.693C93.826 2.464 99.34.824 105.34.824c5.999 0 11.483 1.64 16.452 4.92 5.029 3.281 8.968 7.846 11.816 13.694 2.909 5.848 4.363 12.445 4.363 19.79 0 7.346-1.454 13.979-4.363 19.898-2.908 5.849-6.847 10.413-11.816 13.694-4.969 3.28-10.453 4.92-16.452 4.92zm0-16.688c5.09 0 9.15-1.997 12.18-5.99 3.09-3.994 4.635-9.272 4.635-15.833 0-6.633-1.545-11.91-4.635-15.833-3.03-3.994-7.09-5.99-12.18-5.99-5.151 0-9.272 1.96-12.362 5.883-3.03 3.922-4.545 9.236-4.545 15.94 0 6.632 1.515 11.945 4.545 15.94 3.09 3.922 7.211 5.883 12.362 5.883zm71.456 16.688c-5.999 0-11.513-1.64-16.543-4.92-4.969-3.281-8.938-7.845-11.907-13.694-2.909-5.919-4.363-12.552-4.363-19.897 0-7.346 1.454-13.943 4.363-19.791 2.969-5.848 6.938-10.413 11.907-13.693 5.03-3.281 10.544-4.921 16.543-4.921 6 0 11.484 1.64 16.453 4.92 5.029 3.281 8.968 7.846 11.816 13.694 2.909 5.848 4.363 12.445 4.363 19.79 0 7.346-1.454 13.979-4.363 19.898-2.908 5.849-6.847 10.413-11.816 13.694-4.969 3.28-10.453 4.92-16.453 4.92zm0-16.688c5.091 0 9.151-1.997 12.181-5.99 3.09-3.994 4.635-9.272 4.635-15.833 0-6.633-1.545-11.91-4.635-15.833-3.03-3.994-7.09-5.99-12.181-5.99-5.15 0-9.271 1.96-12.361 5.883-3.03 3.922-4.545 9.236-4.545 15.94 0 6.632 1.515 11.945 4.545 15.94 3.09 3.922 7.211 5.883 12.361 5.883zm98.363 15.94h-15.544L233.619 30.67v46.322h-15.543V1.893h15.543l25.996 46.536V1.894h15.544v75.098zm26.81-60.442v15.19h20.815v14.121h-20.815v16.475h23.542v14.656h-39.085V1.893h39.085V16.55h-23.542zm30.997 22.786c0-7.417 1.364-14.014 4.091-19.791 2.727-5.848 6.514-10.377 11.362-13.586 4.908-3.281 10.453-4.921 16.634-4.921 7.575 0 14.059 2.353 19.452 7.06 5.393 4.707 8.999 11.126 10.817 19.256h-17.089c-1.273-3.138-3.091-5.527-5.454-7.167-2.303-1.64-4.939-2.46-7.908-2.46-4.787 0-8.665 1.96-11.635 5.883-2.969 3.922-4.454 9.164-4.454 15.726 0 6.56 1.485 11.803 4.454 15.725 2.97 3.923 6.848 5.884 11.635 5.884 2.969 0 5.605-.82 7.908-2.46 2.363-1.64 4.181-4.03 5.454-7.168h17.089c-1.818 8.13-5.424 14.549-10.817 19.256-5.393 4.636-11.877 6.954-19.452 6.954-6.181 0-11.726-1.605-16.634-4.814-4.848-3.281-8.635-7.81-11.362-13.587-2.727-5.776-4.091-12.373-4.091-19.79zM450.743 1.893V16.55h-16.907v60.443h-15.543V16.549h-16.907V1.894h49.357zm97.508 31.237V43.4h-68.173V33.13h68.173z" fill="#fff"/></svg>