<svg width="65" height="65" xmlns="http://www.w3.org/2000/svg">
 <style type="text/css">.st0{fill:#DD0031;}
	.st1{fill:#C3002F;}
	.st2{fill:#FFFFFF;}</style>

 <g>
  <title>background</title>
  <rect fill="none" id="canvas_background" height="67" width="67" y="-1" x="-1"/>
 </g>
 <g>
  <title>Layer 1</title>
  <g stroke="null" id="svg_1">
   <polygon stroke="null" id="svg_2" points="32.5,3.8544464111328125 32.5,3.8544464111328125 32.5,3.8544464111328125 5.83099365234375,13.364762306213379 9.89865779876709,48.62744140625 32.5,61.14555358886719 32.5,61.14555358886719 32.5,61.14555358886719 55.1013298034668,48.62744140625 59.16900634765625,13.364762306213379 " class="st0"/>
   <polygon stroke="null" id="svg_3" points="32.5,3.8544464111328125 32.5,10.213762283325195 32.5,10.185112953186035 32.5,39.20304870605469 32.5,39.20304870605469 32.5,61.14555358886719 32.5,61.14555358886719 55.1013298034668,48.62744140625 59.16900634765625,13.364762306213379 32.5,3.8544464111328125 " class="st1"/>
   <path stroke="null" id="svg_4" d="m32.499998,10.185112l-16.671708,37.382439l0,0l6.216084,0l0,0l3.351529,-8.3645l14.1509,0l3.351529,8.3645l0,0l6.216084,0l0,0l-16.614417,-37.382439l0,0l0,0l0,0l0,0zm4.869743,23.861741l-9.739486,0l4.869743,-11.716029l4.869743,11.716029z" class="st2"/>
  </g>
 </g>
</svg>