<svg width="113" height="65" xmlns="http://www.w3.org/2000/svg">

 <metadata>image/svg+xmlOpenclipartPHP elephant2010-09-13T18:09:54PHP elephanthttps://openclipart.org/detail/84679/php-elephant-by-asrafilasrafilPHPelephantlanguajelogo</metadata>
 <g>
  <title>background</title>
  <rect fill="none" id="canvas_background" height="67" width="115" y="-1" x="-1"/>
 </g>
 <g>
  <title>Layer 1</title>
  <rect height="110.56" x="224.72" width="210.33" y="-120.67" id="rect3614"/>
  <g transform="matrix(0.1604447190407797,0,0,0.1604447190407797,6.204328782826036,40.331501324786984) " id="g4011">
   <path stroke="#000000" stroke-width="1px" fill="none" d="m212.683067,-22.450687c3.5955,1.3483 1.7977,-0.44943 0,0z" id="path2818"/>
   <path stroke="#000000" stroke-width="2.8707" fill="#2d91f2" d="m259.493067,108.539313l-1.1571,-85.273c-1.8993,25.495 41.93,17.944 70.799,14.003c24.249,-1.839 46.826,3.0108 47.726,-20.078l4.586,86.403c19.225,7.3417 66.132,15.762 80.902,-14.261l-1.428,-106.22c14.536,-34.546 38.398,-58.887 14.091,-131.89l62.792,-0.91218c8.528,4.7888 16.733,8.588 24.092,9.798c4.0945,-3.545 10.062,-7.2211 11.788,-13.162l0.56143,-16.304c1.2646,-6.7976 -3.2176,-8.7071 -8.9282,-9.5717l-14.066,0.69406l-12.87,8.2822l-83.538,-0.15423c-57.86,-37.375 -107.33,-47.111 -179.88,-31.624c-4.9739,-6.3764 -6.8274,-11.306 -20.551,-11.442c-32.764,-1.8712 -50.275,11.826 -70.372,22.883c-47.869,-1.6864 -67.562,3.2468 -80.472,7.8243c-6.1155,2.1683 -10.248,3.0361 -14.343,6.3189c-5.6094,4.4966 -7.9487,7.8771 -12.895,17.429c-12.719,24.565 -29.717,80.841 -21.824,236.04c5.4892,8.3467 10.614,17.623 19.306,17.798c19.826,8.8475 20.74,-4.0008 24.91,-9.5348c-8.4451,-93.926 11.234,-104.39 31.761,-115.69c35.887,-3.5629 25.59,2.8044 37.359,24.486c1.4623,2.694 9.0695,15.798 10.914,18.706l-0.66702,90.93c31.291,15.685 51.631,13.942 81.412,4.5267l-0.00811,-0.00525z" id="path3869"/>
   <path stroke="#000000" fill="#ffffff" d="m152.198067,-112.428687l-58.038,-0.21282l7.2634,-24.475l85.98,0c20.289,0.00007 28.055,8.0164 23.297,24.049l-9.2214,31.072c-4.7582,16.033 -17.282,24.049 -37.571,24.049l-61.931,0l-16.358,55.121l-24.049,0l23.622,-79.596l83.214,0c5.3914,0.00003 8.3819,-0.99314 8.9715,-2.9795l6.9476,-23.411c0.71572,-2.4119 -1.6222,-3.6179 -7.0136,-3.618l-25.113,0" id="path3954"/>
   <path stroke="#000000" fill="#ffffff" d="m407.343067,-112.428687l-58.162,-0.21282l-7.1068,-24.475l85.98,0c20.289,0.00007 32.761,8.0164 37.417,24.049l9.0226,31.072c4.6553,16.033 -3.1615,24.049 -23.45,24.049l-61.931,0l16.006,55.121l-24.049,0l-23.113,-79.596l83.214,0c5.3914,0.00003 7.7988,-0.99314 7.2221,-2.9795l-6.7978,-23.411c-0.70047,-2.4119 -3.7464,-3.6179 -9.1378,-3.618l-25.113,0" id="path3958"/>
   <path stroke="#000000" fill="#ffffff" d="m312.703067,-78.380687l6.1042,67.421l23.69,0.32659l-15.517,-152.57l-23.383,-0.0069l6.0549,56.572l-54.652,-0.45286l5.9234,-56.11l-26.413,0l-15.796,151.31l26.413,0l7.8979,-66.526l59.677,0.0343l0,0.00001l0.0006,0.00186z" id="path3956"/>
  </g>
 </g>
</svg>