<svg width="65" height="65" xmlns="http://www.w3.org/2000/svg">

 <g>
  <title>background</title>
  <rect fill="none" id="canvas_background" height="67" width="67" y="-1" x="-1"/>
 </g>
 <g>
  <title>Layer 1</title>
  <path stroke="null" id="svg_2" fill="#CD6699" d="m51.290071,36.526906c-0.813438,0.307606 -0.78054,0.313054 -1.210833,-0.470734c-0.549521,-0.998358 -0.841831,-2.048264 -0.867081,-3.190053c-0.020849,-0.979814 0.247363,-1.890584 0.58462,-2.783963c0.26926,-0.710449 -0.080988,-0.961165 -0.696305,-1.025808c-0.447789,-0.045994 -0.909723,-0.041594 -1.35856,0.0044c-1.167039,0.119334 -1.281972,0.220018 -1.591779,1.353111c-0.183872,0.672208 -0.330656,1.349864 -0.636062,1.988021c-0.753195,1.570929 -1.609275,3.083921 -2.487253,4.585911c-0.15768,0.270413 -0.287909,0.56157 -0.510128,0.792589c-0.636062,-0.952469 -0.875777,-2.00447 -0.929419,-3.108018c-0.053643,-1.089299 0.280261,-2.101907 0.646958,-3.103618c0.123734,-0.337152 0.020849,-0.546274 -0.270413,-0.691905c-0.129182,-0.064539 -0.273661,-0.124782 -0.414891,-0.135783c-0.748795,-0.059091 -1.49539,-0.050395 -2.225641,0.154327c-0.328456,0.090836 -0.543026,0.274813 -0.616365,0.64371c-0.142278,0.72145 -0.364497,1.42205 -0.66456,2.096458c-0.831983,1.86764 -1.658518,3.738527 -2.489453,5.607319c-0.722498,1.623524 -1.434099,3.251344 -2.290179,4.81033c-0.060243,0.110533 -0.110533,0.302158 -0.261612,0.263812c-0.153279,-0.038346 -0.099637,-0.226619 -0.106237,-0.355801c-0.049242,-0.919571 0.201474,-1.7965 0.414891,-2.674477c0.338304,-1.389257 0.708249,-2.771914 1.067402,-4.156771c0.102885,-0.397395 -0.070091,-0.66456 -0.399595,-0.855032c-0.473982,-0.272613 -0.945868,-0.285709 -1.459244,0.096284c0.070091,-0.564923 0.100684,-1.060802 0.076587,-1.556681c-0.05469,-1.105643 -0.567123,-1.824893 -1.459244,-1.991374c-0.651358,-0.121534 -1.267723,0.067891 -1.850143,0.343752c-1.357512,0.642662 -2.448907,1.611476 -3.366382,2.787211c-0.107285,0.13683 -0.215618,0.262765 -0.371097,0.347c-1.722009,0.93822 -3.442969,1.87644 -5.160578,2.823356c-0.188273,0.105085 -0.309806,0.07554 -0.445589,-0.070091c-0.864881,-0.927219 -1.868687,-1.692463 -2.86275,-2.468603c-1.389257,-1.085947 -2.826604,-2.115003 -4.025389,-3.42432c-0.700601,-0.766292 -1.28522,-1.606028 -1.57753,-2.619682c-0.477335,-1.65747 -0.120381,-3.201054 0.674408,-4.667946c0.94042,-1.73521 2.335126,-3.07512 3.873157,-4.268456c2.442411,-1.893937 5.121184,-3.398128 7.94454,-4.636201c3.16166,-1.384857 6.441502,-2.277083 9.934761,-2.142453c1.383809,0.053643 2.726968,0.293358 3.959698,0.971013c0.872529,0.479535 1.450548,1.172487 1.613676,2.189495c0.191625,1.191031 -0.094189,2.291332 -0.622861,3.334637c-1.181183,2.330725 -3.058671,3.981595 -5.277816,5.274463c-1.847943,1.076098 -3.841412,1.759307 -5.951071,2.117203c-1.165887,0.198121 -2.336173,0.317455 -3.50866,0.139031c-1.345463,-0.204722 -2.589089,-0.654606 -3.509708,-1.738458c-0.106237,-0.124782 -0.240867,-0.211322 -0.421492,-0.123734c-0.185025,0.089788 -0.170776,0.253964 -0.153279,0.411643c0.013096,0.108333 0.042746,0.217818 0.080988,0.320807c0.246316,0.66456 0.707201,1.165887 1.246874,1.603827c1.403506,1.141789 3.066424,1.476845 4.81253,1.510791c1.708912,0.033946 3.391527,-0.182825 5.056645,-0.581267c3.756024,-0.897674 6.902388,-2.740169 9.199167,-5.897429c1.372808,-1.887336 2.242089,-3.967346 2.165397,-6.347313c-0.049242,-1.509639 -0.557274,-2.843053 -1.65747,-3.9268c-1.30827,-1.286373 -2.931689,-1.933331 -4.673499,-2.321925c-1.939931,-0.43134 -3.899455,-0.492631 -5.87878,-0.256164c-1.722009,0.205769 -3.404623,0.558322 -5.042396,1.122092c-2.505902,0.863728 -4.926311,1.92453 -7.242787,3.214151c-2.373367,1.320214 -4.610008,2.832157 -6.571732,4.725989c-1.736257,1.676014 -3.228399,3.525109 -4.069183,5.820737c-0.359049,0.983062 -0.617413,1.993574 -0.376545,3.056576c0.308759,1.368408 0.983062,2.552944 1.86984,3.621394c1.341063,1.618076 2.986484,2.892295 4.683348,4.109624c1.36296,0.978662 2.789411,1.86984 4.098728,2.921841c0.371097,0.297758 0.368897,0.297758 -0.067891,0.526577c-0.510128,0.266012 -1.025808,0.522176 -1.527135,0.805685c-2.021862,1.143047 -3.975937,2.382272 -5.571069,4.104386c-0.784941,0.848432 -1.318118,1.800901 -1.566529,2.85835c1.298316,1.939931 2.843053,3.700286 4.589159,5.236117c2.978836,-0.232067 5.259167,-1.782252 6.943982,-4.346091c0.813438,-1.238178 1.194384,-2.639379 1.337815,-4.117377c0.125934,-1.302717 -0.006601,-2.563945 -0.389746,-3.807571c-0.066739,-0.21897 -0.315255,-0.436788 -0.217818,-0.629461c0.090836,-0.177377 0.364601,-0.267165 0.56597,-0.383146c0.812286,-0.471886 1.626772,-0.937068 2.463155,-1.41765c0.036146,0.179577 -0.033946,0.284662 -0.064539,0.398442c-0.479535,1.759307 -0.813438,3.532758 -0.448837,5.361004c0.226619,1.138541 0.604316,2.210239 1.322414,3.15286c0.738947,0.969966 2.388768,0.859328 3.058671,-0.026297c0.636062,-0.840784 1.057554,-1.788852 1.496542,-2.73252c0.240867,-0.516728 0.461933,-1.042153 0.691905,-1.564434c-0.042746,0.628414 -0.040546,1.241426 -0.017497,1.852343c0.022945,0.602116 0.119334,1.196584 0.432388,1.728609c0.376545,0.63931 1.084899,0.825487 1.742858,0.48383c0.694105,-0.360201 1.167039,-0.953517 1.534784,-1.597227c1.57753,-2.768561 3.041174,-5.596318 4.253055,-8.548857c0.258364,-0.627261 0.523329,-1.253475 0.815639,-1.950827c0.044842,0.228819 0.074492,0.368897 0.101837,0.50908c0.26926,1.406754 0.748795,2.737968 1.4429,3.989243c0.148879,0.268213 0.13243,0.453237 -0.055843,0.710449c-0.63931,0.870329 -1.340015,1.689215 -2.030767,2.516798c-0.580219,0.696305 -1.200985,1.361912 -1.691416,2.128204c-0.440036,0.689704 -0.187225,1.395753 0.545226,1.552385c0.225466,0.048194 0.463086,0.062443 0.694105,0.059091c1.279772,-0.015296 2.460955,-0.397395 3.561255,-1.023608c1.481141,-0.844031 2.359223,-2.081162 2.318677,-3.842564c-0.018649,-0.80139 -0.235419,-1.570929 -0.558322,-2.30558c-0.071139,-0.163128 -0.074492,-0.281309 0.031745,-0.434588c1.025808,-1.469197 1.932178,-3.009429 2.765314,-4.594607c0.147831,-0.279109 0.251764,-0.58902 0.490431,-0.861528c0.031745,0.110533 0.05689,0.179577 0.071139,0.250716c0.264965,1.313718 0.621813,2.597785 1.291821,3.770273c0.183872,0.320807 0.091989,0.48383 -0.161975,0.6984c-0.874729,0.743347 -1.612523,1.610323 -2.191695,2.603338c-0.451037,0.772892 -0.759796,1.598275 -0.756443,2.503702c0.003248,1.007159 0.77394,1.600475 1.755954,1.364008c1.023608,-0.245268 1.972724,-0.662359 2.824404,-1.28522c1.855591,-1.35856 2.399664,-2.791611 1.818397,-4.79168c-0.227666,-0.787141 -0.223371,-0.77394 0.56597,-1.012607c1.726409,-0.521129 3.477963,-0.543026 5.238317,-0.256164c0.199274,0.032793 0.396347,0.070091 0.591115,0.112733c0.102885,-0.625061 0.183872,-1.257875 0.240867,-1.898337c-2.251938,-0.550464 -4.500628,-0.264755 -6.722916,0.579276zm-36.47911,14.083884c-0.500279,0.177377 -1.020255,0.252916 -1.552385,0.211322c-0.662359,-0.052595 -1.082699,-0.519976 -1.125445,-1.222882c-0.048194,-0.810086 0.191625,-1.541384 0.546274,-2.252986c0.644758,-1.291821 1.727457,-2.168645 2.832157,-3.029126c1.073898,-0.837431 2.227841,-1.552385 3.394775,-2.247538c0.353601,-0.21017 0.359049,-0.20797 0.440036,0.213522c0.105085,0.540826 0.199274,1.082699 0.164175,1.574282c0.092093,2.948033 -2.049207,5.815184 -4.699587,6.753404zm16.068657,-14.865577c-0.186072,1.242579 -0.592268,2.425962 -1.024656,3.595096c-0.58902,1.596179 -1.162639,3.199902 -1.903785,4.73479c-0.169728,0.353601 -0.348152,0.705001 -0.622861,0.99291c-0.259412,0.272613 -0.489383,0.240867 -0.668855,-0.091989c-0.350353,-0.650311 -0.306559,-1.373856 -0.363449,-1.899385c0.016449,-2.636131 0.901027,-4.790633 2.35807,-6.727211c0.407243,-0.539673 0.927219,-0.978662 1.615876,-1.15499c0.467381,-0.119124 0.682999,0.069149 0.60966,0.550779zm10.203079,7.804462c-0.499232,0.862681 -1.218481,1.489942 -2.100859,1.936579c-0.094189,0.047042 -0.215618,0.13023 -0.301006,0.019697c-0.080988,-0.104037 0.049242,-0.172976 0.108333,-0.238667c0.876929,-0.957917 1.742858,-1.923482 2.523398,-2.962387c0.012049,-0.016449 0.041594,-0.018649 0.108333,-0.047042c-0.007648,0.480687 -0.112733,0.903227 -0.338199,1.291821zm6.055004,-0.037194c-0.13023,0.061291 -0.281309,0.176224 -0.408291,0.07774c-0.140078,-0.108333 -0.08434,-0.299958 -0.041594,-0.446637c0.199274,-0.668855 0.467486,-1.309317 0.837431,-1.905986c0.310854,-0.502479 0.696305,-0.941468 1.119892,-1.350911c0.170776,-0.164175 0.247363,-0.144479 0.305406,0.091989c0.060243,0.241915 0.065691,0.48383 0.070091,0.730146c-0.010896,1.347663 -0.695153,2.24429 -1.882936,2.80366z"/>
  <g id="svg_3"/>
  <g id="svg_4"/>
  <g id="svg_5"/>
  <g id="svg_6"/>
  <g id="svg_7"/>
  <g id="svg_8"/>
  <g id="svg_9"/>
  <g id="svg_10"/>
  <g id="svg_11"/>
  <g id="svg_12"/>
  <g id="svg_13"/>
  <g id="svg_14"/>
  <g id="svg_15"/>
  <g id="svg_16"/>
  <g id="svg_17"/>
 </g>
</svg>