<svg width="65" height="65" xmlns="http://www.w3.org/2000/svg">

 <g>
  <title>background</title>
  <rect fill="none" id="canvas_background" height="67" width="67" y="-1" x="-1"/>
 </g>
 <g>
  <title>Layer 1</title>
  <g stroke="null" id="svg_1">
   <path stroke="null" id="svg_2" fill="#00769D" d="m21.763614,22.22779l-2.964052,0l8.080823,22.842572l4.523889,-12.927711l-3.507417,-9.914862l-3.127349,0l0,-2.176579l13.848866,0l0,2.176579l-3.243048,0l8.080703,22.842572l2.904703,-8.300831c3.810392,-10.634953 -3.123033,-13.94778 -3.123033,-16.321227s1.92408,-4.297407 4.297407,-4.297407c0.128408,0 0.253099,0.006954 0.375272,0.018344c-4.021408,-3.796245 -9.443913,-6.124252 -15.410622,-6.124252c-7.796432,0 -14.663914,3.97405 -18.689759,10.006222l7.953375,0l0,2.176579l0.00024,0l0,0z"/>
   <path stroke="null" id="svg_3" fill="#00769D" d="m10.044928,32.500059c0,8.596972 4.83202,16.064291 11.927544,19.837636l-10.133551,-28.645265c-1.154352,2.704358 -1.793993,5.681239 -1.793993,8.807629z"/>
   <path stroke="null" id="svg_4" fill="#00769D" d="m52.042453,21.434922c0.3212,1.891228 0.223964,4.016852 -0.268925,6.150749l0.089322,0l-0.339543,0.970193l0,0c-0.201184,0.700548 -0.454523,1.417162 -0.742272,2.121308l-7.726533,21.646017c7.080657,-3.777901 11.900328,-11.237187 11.900328,-19.823249c0,-4.023327 -1.059155,-7.798949 -2.912377,-11.065017z"/>
   <path stroke="null" id="svg_5" fill="#00769D" d="m25.574606,53.864922c2.181495,0.706663 4.508423,1.089968 6.925392,1.089968c2.305347,0 4.529285,-0.347936 6.622896,-0.993333l-6.568344,-18.567226l-6.979945,18.47059z"/>
   <path stroke="null" id="svg_6" fill="#00769D" d="m51.476547,13.523391c-5.068814,-5.068814 -11.808248,-7.860336 -18.976668,-7.860336s-13.907735,2.791522 -18.976548,7.860336s-7.860336,11.808128 -7.860336,18.976668c0,7.16842 2.791522,13.907735 7.860336,18.976548s11.808248,7.860336 18.976668,7.860336s13.907735,-2.791522 18.976668,-7.860336c5.068814,-5.068814 7.860336,-11.808248 7.860336,-18.976548c-0.00012,-7.16854 -2.791642,-13.907855 -7.860456,-18.976668zm-18.976668,43.920405c-13.754029,0 -24.943737,-11.189708 -24.943737,-24.943737s11.189708,-24.943857 24.943737,-24.943857s24.943737,11.189828 24.943737,24.943857s-11.189588,24.943737 -24.943737,24.943737z"/>
  </g>
  <g id="svg_7"/>
  <g id="svg_8"/>
  <g id="svg_9"/>
  <g id="svg_10"/>
  <g id="svg_11"/>
  <g id="svg_12"/>
  <g id="svg_13"/>
  <g id="svg_14"/>
  <g id="svg_15"/>
  <g id="svg_16"/>
  <g id="svg_17"/>
  <g id="svg_18"/>
  <g id="svg_19"/>
  <g id="svg_20"/>
  <g id="svg_21"/>
 </g>
</svg>