<svg width="65" height="65" xmlns="http://www.w3.org/2000/svg">
 <title>file_type_git</title>

 <g>
  <title>background</title>
  <rect fill="none" id="canvas_background" height="67" width="67" y="-1" x="-1"/>
 </g>
 <g>
  <title>Layer 1</title>
  <path stroke="null" id="svg_1" fill="#dd4c35" d="m57.998922,30.139758l-23.13868,-23.13868a3.406922,3.406922 0 0 0 -4.826474,0l-4.805653,4.805653l6.094605,6.094605a4.052344,4.052344 0 0 1 5.133096,5.167166l5.867477,5.867478a4.05613,4.05613 0 1 1 -2.432164,2.290208l-5.479466,-5.479466l0,14.41696a4.052344,4.052344 0 1 1 -3.338783,-0.11735l0,-14.54945a4.061808,4.061808 0 0 1 -2.205036,-5.326155l-5.999968,-6.003753l-15.866794,15.872472a3.406922,3.406922 0 0 0 0,4.828366l23.13868,23.131108a3.406922,3.406922 0 0 0 4.826473,0l23.032687,-23.038365a3.406922,3.406922 0 0 0 0,-4.828366"/>
 </g>
</svg>