<svg width="512" height="512" xmlns="http://www.w3.org/2000/svg"><path fill="none" d="M-1-1h514v514H-1z"/><g fill="#fff"><path d="M197.72 190.676a11.9 11.9 0 009.048.749 12.731 12.731 0 006.22-3.894 17.632 17.632 0 00-6.189-6.51c-4.461-2.744-9.876-3.455-14.621-3.37a11.807 11.807 0 005.542 13.025zM115.339 70.155c-5.062 3.53-5.127 12.932-2.028 20.318a191.95 191.95 0 0122.063-14.56 26.77 26.77 0 00-9.288-5.862c-4.366-1.583-8.386-1.545-10.747.104zm58.416 212.22c.156-.006.314-.006.47-.012a38.955 38.955 0 012.349-9.638q-4.323-.6-8.332-.834a259.052 259.052 0 005.513 10.484zm164.014-.075h.521a263.492 263.492 0 005.274-10.015q-3.815.379-7.889 1.088a39.093 39.093 0 012.094 8.927zm31.022-210.564a36.563 36.563 0 0114.2-10.015c7.128-2.7 13.989-2.319 18.82 1.052 9.025 6.295 10.891 21.916 4.716 34q3.448 2.914 6.921 6.126c2.078-9.018 4.022-21.3 3.476-31.968v-.079c-.547-10.45-3.492-19.323-11.084-21.974-13.656-4.77-34.183 9.351-45.368 18.947q3.958 1.738 8.319 3.911zm90.369 70.52c-10.868-27.732-23.134-47.084-33.468-60.067a162.055 162.055 0 01-4.791 27.958 220.389 220.389 0 0115.837 18.083l22.422 14.026z"/><path d="M98.533 102.921q3.772-3.492 7.522-6.637c-6.348-12.155-4.759-27.307 4.135-33.511 4.83-3.368 11.741-3.8 18.962-1.183a36.124 36.124 0 0114.465 9.943 176.564 176.564 0 016.561-3.109c-10.6-9.762-30.372-24.309-44.012-19.542-5.84 2.039-12.481 9.269-10.957 32.134a147.771 147.771 0 003.324 21.905z"/><path d="M54.753 228.075a180.46 180.46 0 0020.407-30 105.45 105.45 0 0141.3-41.687 4.5 4.5 0 014.373 7.867 96.448 96.448 0 00-37.773 38.131 197.366 197.366 0 01-10.745 17.471c-.931 2.787-4.659 15.127-5.714 36.705a243.089 243.089 0 001.79 42.8 181.271 181.271 0 0113.247-32.181 4.5 4.5 0 018.262 3.459c-.051.172-5.265 17.89-4.351 42.453.7 18.92 5.286 45.322 21.786 70.964a104.574 104.574 0 012.786-18.564 176.031 176.031 0 016.954-22.64 4.5 4.5 0 018.677 1.885c-.025.519-1.883 44.645 18.331 71.011-5.63-23.863-2.723-49.983-2.563-51.36a4.5 4.5 0 018.957.178c.038.5 3.795 44.549 32.6 77.2-1.945-15.72 1.505-32.344 1.713-33.32a4.5 4.5 0 018.861.336c.054.4 5.094 35.966 24.121 57.528a239.64 239.64 0 014.343-28.951 4.5 4.5 0 018.9.836c.012.438 1.473 43.225 25.019 62.7 23.541-19.475 24.952-62.26 24.963-62.7a4.5 4.5 0 018.9-.838 239.64 239.64 0 014.344 28.955c19.065-21.584 24.066-57.134 24.12-57.532a4.5 4.5 0 018.861-.336c.208.976 3.658 17.6 1.713 33.32 28.807-32.648 32.564-76.7 32.6-77.2a4.5 4.5 0 014.4-4.154h.087a4.5 4.5 0 014.468 3.98c.161 1.377 3.069 27.51-2.567 51.378 20.263-26.378 18.361-70.508 18.335-71.029a4.5 4.5 0 018.677-1.885 176.031 176.031 0 016.954 22.64 104.43 104.43 0 012.786 18.568C439.408 330.135 422.3 271.281 422.1 270.64a4.5 4.5 0 018.258-3.456 181.271 181.271 0 0113.247 32.181 243.089 243.089 0 001.79-42.8c-1.055-21.58-4.784-33.919-5.714-36.705a197.511 197.511 0 01-10.745-17.471 96.448 96.448 0 00-37.768-38.132 4.5 4.5 0 014.373-7.867 105.45 105.45 0 0141.295 41.687 180.4 180.4 0 0020.408 30 68.624 68.624 0 016.081 8.337c2.432-54.281-32.551-101.177-33.2-102.033-31.888-40.919-67.822-57.251-86.406-63.345a4.5 4.5 0 112.8-8.551 144.86 144.86 0 014.624 1.607 129.37 129.37 0 0124.881-18.034 58.286 58.286 0 00-13.276-2.29 4.5 4.5 0 01-.96-8.887l26.395-6.027c-17.646-4.282-47.37-8.093-74.068 4.707a4.5 4.5 0 01-4.373-7.846L332.546 11.1c-19.913 1.113-53.666 5.475-70.539 21.851a9.424 9.424 0 01-13.2-.01c-16.745-16.308-49.723-20.7-69.334-21.831l22.779 14.6a4.5 4.5 0 01-4.373 7.846c-26.766-12.833-56.48-9.008-74.1-4.716l26.421 6.039a4.5 4.5 0 01-.972 8.887 59.193 59.193 0 00-13.894 2.469 93.593 93.593 0 017.02 4.419 133.305 133.305 0 0116.906 14.022c2.226-.841 4.306-1.57 6.209-2.193a4.5 4.5 0 112.8 8.551c-18.585 6.094-54.52 22.427-86.408 63.348-.651.861-35.628 47.754-33.2 102.031a68.644 68.644 0 016.092-8.338zm102.626-81.365c15.875-18.633 32-28.436 47.939-29.136 13.12-.57 25.61 4.894 37.158 16.258a6067.673 6067.673 0 0113.6 13.426c2.9-2.942 7.61-7.68 13.449-13.426 11.547-11.364 24.036-16.835 37.158-16.258 15.935.7 32.064 10.5 47.939 29.136 20.305 23.834 23.592 58.377 9.5 99.895-1.9 5.606-4.007 11-6.2 16.124 22.473.9 35.9 8.843 36.793 9.386a4.5 4.5 0 01-4.673 7.692c-.206-.124-13.67-7.971-36.208-8.033a259.688 259.688 0 01-5.553 10.983c15.655 1.408 29.048 6.026 39.217 13.614a4.5 4.5 0 11-5.383 7.213c-11.584-8.645-26.328-11.525-38.69-12.154a234.962 234.962 0 01-5.81 9.43 75.1 75.1 0 0136.471 19.376 4.5 4.5 0 01-6.246 6.481 66.863 66.863 0 00-35.885-17.706A42.7 42.7 0 01318.6 322.7a44.373 44.373 0 01-4.952 2.746 46.344 46.344 0 01-13.035 28.768c-10.118 10.128-25.049 15.25-44.414 15.251h-.4c-19.366 0-34.3-5.123-44.414-15.251a46.344 46.344 0 01-13.035-28.768 44.373 44.373 0 01-4.95-2.746 42.731 42.731 0 01-12.9-12.954 66.167 66.167 0 00-32.23 16.968 4.5 4.5 0 01-6.247-6.481 74.685 74.685 0 0132.931-18.506 231.01 231.01 0 01-6.216-10.017c-11.462 1.018-24.369 4.129-34.744 11.871a4.5 4.5 0 11-5.383-7.213c9.317-6.952 21.345-11.4 35.334-13.188a262.017 262.017 0 01-5.764-11.37c-20.113.894-31.908 7.869-32.1 7.986a4.5 4.5 0 01-4.685-7.684c.836-.51 12.726-7.55 32.781-9.148a222.972 222.972 0 01-6.3-16.362c-14.09-41.515-10.803-76.058 9.502-99.892z"/><path d="M163.88 262.66a111.864 111.864 0 0117.229 1.619 42.606 42.606 0 014.815-5.672l-1.03-7.744a23.53 23.53 0 013-14.907l10.958-18.756a4.5 4.5 0 117.769 4.542L195.659 240.5a14.5 14.5 0 00-1.844 9.179l.33 2.471a35.116 35.116 0 014.319-2.322A4.5 4.5 0 01202 258.1a34.166 34.166 0 00-8.033 5.3 4.577 4.577 0 01-.582.521 35.182 35.182 0 00-2.44 2.455 139.315 139.315 0 0119.54 6.631 4.5 4.5 0 11-3.5 8.292 126.875 126.875 0 00-21.323-6.918 29.812 29.812 0 00-2.351 7.993 134.62 134.62 0 0126.565 3.566 4.5 4.5 0 01-2.285 8.705 128.275 128.275 0 00-24.371-3.268 32.839 32.839 0 002.168 8.269 80.454 80.454 0 0124.831.356 4.5 4.5 0 01-1.819 8.814 71.089 71.089 0 00-17.877-.575 34.405 34.405 0 0041.014 9.193 98.4 98.4 0 0020.121-13.31V296.5c-3.8-1.144-6.6-2.973-8.311-5.487a10.734 10.734 0 01-1.854-6.152c-17.973-6.075-29.127-15.015-33.171-26.595-5-14.308 2.639-27.276 5.1-30.91 3.824-5.65 5.556-17.185 5.9-21.153a4.5 4.5 0 018.967.771c-.057.677-1.488 16.672-7.414 25.427-1.327 1.962-7.762 12.283-4.055 22.9a21.551 21.551 0 002.207 4.475c2.359-3.2 6.249-6.971 11.94-8.032 6.985-1.3 14.5 1.824 22.362 9.27 10.454-7.372 19.7-9.881 27.522-7.425a20.607 20.607 0 0110.723 8.171 22.358 22.358 0 003.574-6.339c3.8-10.656-2.677-21.044-4.013-23.018-5.926-8.755-7.357-24.75-7.414-25.427a4.5 4.5 0 018.967-.771c.344 3.968 2.076 15.5 5.9 21.153 2.477 3.659 10.158 16.713 5.037 31.084a33.644 33.644 0 01-10.188 14.244 5.104 5.104 0 01-.237.2q-8.6 7.26-23.133 12.13a12.436 12.436 0 01-1.829 5.866 12.036 12.036 0 01-7.579 5.246v7.722a83.541 83.541 0 0019.814 13.6 34.413 34.413 0 0041.235-9.46 66.581 66.581 0 00-13.979.841 4.5 4.5 0 01-1.827-8.813 78.146 78.146 0 0120.9-.792 32.868 32.868 0 001.95-7.6 125.21 125.21 0 00-20.228 3.037 4.5 4.5 0 01-2.282-8.706 131.484 131.484 0 0122.486-3.353 30.027 30.027 0 00-1.979-7.29 127.987 127.987 0 00-17.615 6 4.5 4.5 0 01-3.5-8.292 141.472 141.472 0 0116.21-5.73 34.852 34.852 0 00-3.23-3.361 4.43 4.43 0 01-.568-.509 34.215 34.215 0 00-8.055-5.318 4.5 4.5 0 013.546-8.272 35.168 35.168 0 014.32 2.322l.329-2.472a14.5 14.5 0 00-1.844-9.178l-10.962-18.755a4.5 4.5 0 117.769-4.542l10.962 18.756a23.529 23.529 0 013 14.906l-1.03 7.745a42.264 42.264 0 015.294 6.349 114.9 114.9 0 0116.685-2.153c2.7-6.025 5.3-12.45 7.549-19.09 13.2-38.9 10.562-69.573-7.834-91.166-14.188-16.654-28.145-25.4-41.483-25.981-10.522-.48-20.757 4.141-30.45 13.681-9.8 9.646-16.424 16.459-16.489 16.527-.013.013-.021.028-.034.041a4.5 4.5 0 01-6.363.02s-6.839-6.8-16.784-16.584c-9.694-9.54-19.925-14.156-30.45-13.681-13.338.585-27.295 9.327-41.482 25.981-18.4 21.593-21.033 52.266-7.835 91.166 2.226 6.576 4.795 12.952 7.475 18.936zM232 292.144a4.49 4.49 0 11-1.32 3.18 4.531 4.531 0 011.32-3.18zm-12.57-8.39a4.488 4.488 0 11-1.321 3.18 4.495 4.495 0 011.321-3.18zm0 14.68a4.488 4.488 0 11-1.321 3.18 4.495 4.495 0 011.321-3.18zm64.679.07a4.488 4.488 0 111.321-3.18 4.528 4.528 0 01-1.321 3.176v.004zm12.581 6.29a4.49 4.49 0 111.32-3.18 4.531 4.531 0 01-1.32 3.18zm0-14.68a4.49 4.49 0 111.32-3.18 4.531 4.531 0 01-1.32 3.18zm-9.451-95.546c1.687-9.724 6.157-16.869 13.289-21.239 7.292-4.468 15.925-5.033 22.6-4.528h.043a53.759 53.759 0 0110.84 1.911 4.5 4.5 0 01-2.649 8.6 32.857 32.857 0 00-2.237-.556 20.952 20.952 0 01-10.346 19.708 19.464 19.464 0 01-9.746 2.5 22.8 22.8 0 01-6.293-.9 22.488 22.488 0 01-6.816-3.3 4.5 4.5 0 01-4.249 3.062 4.442 4.442 0 01-.774-.068 4.5 4.5 0 01-3.662-5.19zm-109.253-23.852a53.8 53.8 0 0110.835-1.911h.053c6.678-.5 15.308.061 22.6 4.527 7.132 4.37 11.6 11.515 13.289 21.239a4.495 4.495 0 01-8.688 2.208 22.488 22.488 0 01-6.816 3.3 22.8 22.8 0 01-6.293.9 19.461 19.461 0 01-9.747-2.505 20.947 20.947 0 01-10.344-19.708c-1.374.3-2.2.546-2.238.557a4.5 4.5 0 01-2.649-8.6l-.002-.007zM386.182 70.137A27 27 0 00377 76.125a192.022 192.022 0 0122.3 14.814c3.371-8.2 1.834-17.666-2.637-20.784-2.323-1.62-6.241-1.626-10.481-.018z"/><path d="M250.781 285.947c.27.4 1.388 1.62 5.169 2.373a8.135 8.135 0 012.288-.873c1.762-.378 2.219-1.107 2.368-1.347a4.738 4.738 0 00.353-3.242 4.5 4.5 0 013.079-5.38q13.021-3.9 20.845-9.483a12.365 12.365 0 00-6.8-5.841c-5.6-1.719-13.459 1.243-22.733 8.563a4.447 4.447 0 01-6.993-1.985c-6.048-6.1-11.464-8.92-15.705-8.15-3.724.673-6.2 4.018-7.374 6.008q7.659 6.171 21.311 10.467a5.944 5.944 0 014 7.11 2.015 2.015 0 00.192 1.78zm54.451-94.522a11.34 11.34 0 0014.59-13.774c-4.745-.084-10.161.626-14.621 3.37a17.632 17.632 0 00-6.189 6.51 12.731 12.731 0 006.22 3.894z"/></g></svg>